SplineFontDB: 3.0
FontName: Elegery
FullName: Elegery
FamilyName: Elegery
Weight: Medium
Copyright: Created by Guillaume Ayoub with FontForge 2.0 (http://fontforge.sf.net)
UComments: "2012-10-28: Created." 
Version: 0.1
ItalicAngle: 0
UnderlinePosition: -100
UnderlineWidth: 40
Ascent: 750
Descent: 250
LayerCount: 2
Layer: 0 0 "Arri+AOgA-re"  1
Layer: 1 0 "Avant"  0
XUID: [1021 779 1303216649 12687787]
FSType: 8
OS2Version: 0
OS2_WeightWidthSlopeOnly: 0
OS2_UseTypoMetrics: 1
CreationTime: 1351421788
ModificationTime: 1374522714
PfmFamily: 17
TTFWeight: 500
TTFWidth: 5
LineGap: 90
VLineGap: 0
OS2TypoAscent: 0
OS2TypoAOffset: 1
OS2TypoDescent: 0
OS2TypoDOffset: 1
OS2TypoLinegap: 90
OS2WinAscent: 0
OS2WinAOffset: 1
OS2WinDescent: 0
OS2WinDOffset: 1
HheadAscent: 0
HheadAOffset: 1
HheadDescent: 0
HheadDOffset: 1
OS2Vendor: 'PfEd'
Lookup: 4 0 1 "liga"  {"liga"  } ['liga' ('DFLT' <'dflt' > 'latn' <'dflt' > ) ]
Lookup: 1 0 0 "onum"  {"onum" ("oldstyle" ) } ['onum' ('DFLT' <'dflt' > 'latn' <'dflt' > ) ]
Lookup: 258 0 0 "kern"  {"kern" [150,15,0] } ['kern' ('DFLT' <'dflt' > 'latn' <'dflt' > ) ]
MarkAttachClasses: 1
DEI: 91125
KernClass2: 18 24 "kern" 
 7 a h m n
 5 b o p
 30 d l lacute lcaron lcommaaccent
 15 f longs uniFB00
 19 t tcommaaccent tbar
 9 u uogonek
 15 v w wcircumflex
 82 A L Agrave Aacute Acircumflex Atilde Adieresis Aring Amacron Abreve Aogonek Lacute
 17 B D Dcaron Dcroat
 3 F P
 28 R Racute Rcommaaccent Rcaron
 21 T Tcommaaccent Tcaron
 20 V W Tbar Wcircumflex
 13 Y Ycircumflex
 12 comma period
 26 periodcentered hyphen plus
 68 quotesingle quotedbl quotedblleft quotedblright quoteleft quoteright
 4 a ae

StartChar: A
Encoding: 65 65 0
Width: 579
VWidth: 0
Flags: W
HStem: 0 25<5 78.0775 108.999 171 364 424.001 506.208 574> 270 30<181 354> 640 20G<319 344.333>
LayerCount: 2
Fore
SplineSet
529 25 m 2
 564 25 l 2
 574 25 574 25 574 15 c 10
 574 0 l 25
 364 0 l 25
 364 15 l 18
 364 25 364 25 374 25 c 2
 409 25 l 2
 421 25 429 28 424 45 c 9
 362 270 l 25
 173 270 l 17
 109 45 l 1
 105.333 32.667 109 25 122 25 c 2
 161 25 l 2
 171 25 171 25 171 15 c 10
 171 0 l 25
 5 0 l 25
 5 15 l 18
 5 25 5 25 15 25 c 2
 55 25 l 2
 70 25 77 33 82 45 c 1
 240 640 l 2
 244.146 655.613 299 660 339 660 c 9
 503 45 l 17
 507.25 32 514 25 529 25 c 2
264 630 m 25
 181 300 l 25
 354 300 l 25
 264 630 l 25
EndSplineSet
EndChar

StartChar: I
Encoding: 73 73 1
Width: 261
VWidth: 0
Flags: W
HStem: 0 25<30 94.9393 165.076 225> 625 25<35 94.9237 165.076 231>
VStem: 95 70<25.0001 625>
LayerCount: 2
Fore
SplineSet
95 605 m 18
 95 625 95 625 75 625 c 2
 45 625 l 2
 35 625 35 625 35 635 c 10
 35 650 l 25
 231 650 l 25
 231 635 l 18
 231 625 231 625 221 625 c 2
 185 625 l 2
 165 625 165 625 165 605 c 10
 165 45 l 18
 165 25 165 25 185 25 c 2
 215 25 l 2
 225 25 225 25 225 15 c 10
 225 0 l 25
 30 0 l 25
 30 15 l 18
 30 25 30 25 40 25 c 2
 75 25 l 2
 95.252 25 95 25 95 45 c 10
 95 605 l 18
EndSplineSet
EndChar

StartChar: H
Encoding: 72 72 2
Width: 591
VWidth: 0
Flags: W
HStem: 0 25<10 74.9393 145.076 205 380 444.939 515.076 575> 325 30<145 445> 625 25<15 74.9237 145.076 211 385 444.924 515.076 581>
VStem: 75 70<25.0001 325 355 625> 445 70<25.0001 325 355 625>
LayerCount: 2
Fore
SplineSet
75 605 m 2
 75 625 75 625 55 625 c 2
 25 625 l 2
 15 625 15 625 15 635 c 2
 15 650 l 1
 211 650 l 1
 211 635 l 2
 211 625 211 625 201 625 c 2
 165 625 l 2
 145 625 145 625 145 605 c 2
 145 355 l 1
 445 355 l 1
 445 605 l 2
 445 625 445 625 425 625 c 2
 395 625 l 2
 385 625 385 625 385 635 c 2
 385 650 l 1
 581 650 l 1
 581 635 l 2
 581 625 581 625 571 625 c 2
 535 625 l 2
 515 625 515 625 515 605 c 2
 515 45 l 2
 515 25 515 25 535 25 c 2
 545 25 l 2
 555 25 575 25 575 15 c 2
 575 0 l 1
 380 0 l 1
 380 15 l 2
 380 25 380 25 390 25 c 2
 425 25 l 2
 445.252 25 445 25 445 45 c 2
 445 325 l 5
 145 325 l 5
 145 45 l 2
 145 25 145 25 165 25 c 2
 195 25 l 2
 205 25 205 25 205 15 c 2
 205 0 l 1
 10 0 l 1
 10 15 l 2
 10 25 10 25 20 25 c 2
 55 25 l 2
 75.252 25 75 25 75 45 c 2
 75 605 l 2
EndSplineSet
EndChar

StartChar: F
Encoding: 70 70 3
Width: 445
VWidth: 0
Flags: W
HStem: 0 25<30 74.9392 145.076 185> 325 30<145 329.984> 400 20G<335 355> 620 30<30 74.9999 145.016 399.984>
VStem: 75 70<25.0001 325 355 619.742> 330 25<265 324.921 355.06 420> 400 25<560 619.924>
LayerCount: 2
Fore
SplineSet
425 560 m 1
 410 560 l 2
 400 560 400 560 400 570 c 2
 400 600 l 2
 400 620 400 620 380 620 c 2
 165 620 l 2
 145 620 145 620 145 600 c 2
 145 355 l 1
 310 354.999 l 2
 330 354.999 330 354.748 330 375 c 2
 330 410 l 2
 330 420 330 420 340 420 c 2
 355 420 l 1
 355 265 l 1
 340 265 l 2
 330 265 330 265 330 275 c 2
 330 305 l 2
 330 325 330.001 324.997 310.001 324.997 c 2
 145 325 l 1
 145 45 l 2
 145 25 145 25 165 25 c 2
 175 25 l 2
 185 25 185 25 185 15 c 2
 185 0 l 1
 30 0 l 1
 30 15 l 2
 30 25 30 25 40 25 c 2
 55 25 l 2
 75.25 25.25 75 25 75 45 c 2
 75 605 l 2
 75 625 75 625 55 625 c 2
 40 625 l 2
 30 625 30 625 30 635 c 2
 30 650 l 1
 425 650 l 1
 425 560 l 1
EndSplineSet
EndChar

StartChar: T
Encoding: 84 84 5
Width: 535
VWidth: 0
Flags: W
HStem: 0 25<170 234.939 305.076 365> 560 90<25 50 490 515> 620 30<50.0165 234.984 305.016 489.984>
VStem: 25 25<560 619.924> 235 70<25.0001 620> 490 25<560 619.924>
CounterMasks: 1 1c
LayerCount: 2
Fore
SplineSet
25 650 m 1xdc
 515 650 l 1
 515 560 l 1
 500 560 l 2xdc
 490 560 490 560 490 570 c 2
 490 600 l 2
 490 620 490 620 470 620 c 2
 325 620 l 2
 305 620 305 620 305 600 c 2
 305 45 l 2
 305 25 305 25 325 25 c 2
 335 25 l 2
 345 25 365 25 365 15 c 2
 365 0 l 1
 170 0 l 1
 170 15 l 2
 170 25 170 25 180 25 c 2
 215 25 l 2
 235.252 25 235 25 235 45 c 2
 235 600 l 2
 235 620 235 620 215 620 c 2
 70 620 l 2xbc
 50 620 50 620 50 600 c 2
 50 570 l 2
 50 560 50 560 40 560 c 2
 25 560 l 1
 25 650 l 1xdc
EndSplineSet
EndChar

StartChar: E
Encoding: 69 69 6
Width: 455
VWidth: 0
Flags: W
HStem: 0 30<30 75 145.016 404.984> 325 30<145 324.984> 400 20G<330 350> 620 30<30 74.9999 145.016 394.984>
VStem: 75 70<30.3203 325 355 619.742> 325 25<265 324.921 355.06 420> 395 25<560 619.924> 405 25<30.0763 90>
LayerCount: 2
Fore
SplineSet
145 50 m 2xfe
 145 30 145 30 165 30 c 2
 385 30 l 2
 405 30 405 30 405 50 c 2
 405 80 l 2
 405 90 405 90 415 90 c 2
 430 90 l 1
 430 0 l 1xfd
 30 0 l 1
 30 15 l 2
 30 24.998 30 25 40 25 c 2
 55 25 l 2
 75.25 25.25 75 25 75 45 c 2
 75 605 l 2
 75 625 75 625 55 625 c 2
 40 625 l 2
 30 625 30 625 30 635 c 2
 30 650 l 1
 420 650 l 1
 420 560 l 1xfe
 405 560 l 2xfd
 395 560 395 560 395 570 c 2
 395 600 l 2
 395 620 395 620 375 620 c 2
 165 620 l 2
 145 620 145 620 145 600 c 2
 145 355 l 1
 305 354.999 l 2
 325 354.999 325 354.748 325 375 c 2
 325 410 l 2
 325 420 325 420 335 420 c 2
 350 420 l 1
 350 265 l 1
 335 265 l 2
 325 265 325 265 325 275 c 2
 325 305 l 2
 325 325 325.001 324.997 305.001 324.997 c 2
 145 325 l 1
 145 50 l 2xfe
EndSplineSet
EndChar

StartChar: L
Encoding: 76 76 7
Width: 475
VWidth: 0
Flags: W
HStem: 0 30<10.0659 75 145.016 419.984> 625 25<10 74.9237 145.076 210>
VStem: 75 70<30.2583 625> 420 30<30.0165 90>
LayerCount: 2
Fore
SplineSet
145 605 m 2
 145 50 l 2
 145 30 145 30 165 30 c 2
 400 30 l 6
 420 30 420 30 420 50 c 6
 420 80 l 6
 420 90 420 90 430 90 c 6
 450 90 l 1
 450 0 l 1
 10 0 l 1
 10 10 l 2
 10 19.998 10 25 20 25 c 2
 55 25 l 2
 75.252 25 75 25 75 45 c 2
 75 605 l 2
 75 625 75 625 55 625 c 2
 20 625 l 2
 10 625 10 625 10 635 c 2
 10 650 l 1
 210 650 l 1
 210 635 l 2
 210 625 210 625 200 625 c 2
 165 625 l 2
 145 625 145 625 145 605 c 2
EndSplineSet
EndChar

StartChar: J
Encoding: 74 74 8
Width: 276
VWidth: 0
Flags: W
HStem: -240 30<-28.0183 54.0543> 625 25<70 129.924 200.076 266>
VStem: 130 70<-141.897 625>
LayerCount: 2
Fore
SplineSet
-75 -240 m 0
 -55 -150 l 1
 -49 -165 -30.0664 -210 0 -210 c 3
 124.016 -210 130 -142 130 -30 c 10
 130 605 l 18
 130 625 130 625 110 625 c 2
 80 625 l 2
 70 625 70 625 70 635 c 10
 70 650 l 25
 266 650 l 25
 266 635 l 18
 266 625 266 625 256 625 c 2
 220 625 l 2
 200 625 200 625 200 605 c 10
 200 -50 l 18
 200 -114 186 -239 -75 -240 c 0
EndSplineSet
Validated: 1
EndChar

StartChar: U
Encoding: 85 85 9
Width: 571
VWidth: 0
Flags: W
HStem: -10 25<232.202 363.066> 625 25<10 75.9237 146.076 206 405 464.924 495.076 561>
VStem: 76 70<96.8284 625> 465 30<122.251 624.984>
LayerCount: 2
Fore
SplineSet
495 220 m 18
 495 31 381.211 -10 296 -10 c 3
 181.99 -10 76 37 76 200 c 10
 76 605 l 18
 76 625 76 625 56 625 c 2
 20 625 l 2
 10 625 10 625 10 635 c 10
 10 650 l 25
 206 650 l 25
 206 635 l 18
 206 625 206 625 196 625 c 2
 166 625 l 2
 146 625 146 625 146 605 c 10
 146 220 l 18
 146 39 235 15 296 15 c 3
 351.009 15 465 37 465 220 c 10
 465 605 l 2
 465 625 465 625 445 625 c 2
 415 625 l 2
 405 625 405 625 405 635 c 10
 405 650 l 25
 561 650 l 25
 561 635 l 18
 561 625 561 625 551 625 c 2
 515 625 l 2
 495 625 495 625 495 605 c 10
 495 220 l 18
EndSplineSet
EndChar

StartChar: B
Encoding: 66 66 10
Width: 510
VWidth: 0
Flags: W
HStem: 0 25<10.0082 74.9995 146.389 339.087> 325 30<145 293.204> 625 25<10.0082 74.9979 146.389 293.481>
VStem: 75 70<25.6525 325 355 624.348> 355 75<410.257 567.753> 405 75<81.4573 250.728>
LayerCount: 2
Fore
SplineSet
245 354.999 m 2xf8
 265 354.999 355 367.999 355 490 c 3
 355 588.001 311.5 625 225 625 c 2
 185 625 l 2
 165 625 145 625 145 605 c 2
 145 355 l 1
 245 354.999 l 2xf8
295 25 m 2
 353 25 405 81.8066 405 160 c 3xf4
 405 302.008 300 324.995 245.001 324.997 c 2
 145 325 l 1
 145 45 l 2
 145 25 165 25 185 25 c 2
 295 25 l 2
325 0 m 2
 10 0 l 1
 10 10 l 2
 10 19.998 10 20 20 20 c 2
 55 20 l 2
 75.252 20 75 20 75 40 c 2
 75 610 l 2
 75 630 75 630 55 630 c 2
 20 630 l 2
 10 630 10 630 10 640 c 2
 10 650 l 1
 255 650 l 2
 349.5 650 430 582.034 430 490 c 3xf8
 430 377.812 332 345 295 340 c 1
 331.919 339.097 480 322.007 480 160 c 3
 480 26.2979 341.667 0 325 0 c 2
EndSplineSet
EndChar

StartChar: D
Encoding: 68 68 11
Width: 545
VWidth: 0
Flags: W
HStem: 0 25<10 74.9393 145.076 283.303> 625 25<10 74.9237 145.928 272.597>
VStem: 75 70<25.0001 624.993> 435 80<186.56 449.187>
LayerCount: 2
Fore
SplineSet
435 310 m 3
 435 584.017 287.5 625 185 625 c 2
 165 625 l 2
 145 625 145 615 145 595 c 2
 145 45 l 2
 145 25 145 25 165 25 c 2
 215 25 l 2
 306.5 25 435 83.998 435 310 c 3
215 0 m 2
 10 0 l 1
 10 15 l 2
 10 24.998 10 25 20 25 c 2
 55 25 l 2
 75.252 25 75 25 75 45 c 2
 75 605 l 2
 75 625 75 625 55 625 c 2
 20 625 l 2
 10 625 10 625 10 635 c 2
 10 650 l 1
 185 650 l 2
 360.5 650 515 552.019 515 310 c 3
 515 81.9805 346.5 0 215 0 c 2
EndSplineSet
EndChar

StartChar: R
Encoding: 82 82 12
Width: 575
VWidth: 0
Flags: W
HStem: -10 25<424.966 569.635> 0 25<10 74.9393 145.076 225 515.389 575> 295 30<145 272.448> 625 25<10 74.9237 145.076 277.189>
VStem: 75 70<25.0001 295 325 625> 365 70<394.459 563.822>
LayerCount: 2
Fore
SplineSet
225 324.999 m 2x3c
 288.5 324.998 365 366.995 365 480 c 3
 365 590 291.5 625 195 625 c 2
 165 625 l 2
 145 625 145 625 145 605 c 2
 145 325 l 1
 225 324.999 l 2x3c
575 30 m 1
 575 5 l 1
 558.333 -4.66699 515.696 -10 485 -10 c 3xbc
 364.933 -10 368.5 294.992 225.001 294.997 c 2
 145 295 l 1
 145 45 l 2
 145 25 145 25 165 25 c 2
 200 25 l 2
 215 25 l 2x7c
 225 25 225 24.998 225 15 c 2xbc
 225 0 l 1
 10 0 l 1x7c
 10 15 l 2xbc
 10 24.998 10 25 20 25 c 2
 55 25 l 2x7c
 75.252 25 75 25 75 45 c 2
 75 605 l 2
 75 625 75 625 55 625 c 2
 20 625 l 2
 10 625 10 625 10 635 c 2
 10 650 l 1
 225 650 l 2
 283 650 435 633.117 435 480 c 3
 435 369 342 310 305 305 c 1
 423.5 302 462.798 15 515 15 c 3xbc
 522.84 15 561 19 575 30 c 1
EndSplineSet
EndChar

StartChar: O
Encoding: 79 79 13
Width: 610
VWidth: 0
Flags: W
HStem: -10 25<248.579 365.202> 635 25<229.655 371.71>
VStem: 35 80<182.973 468.556> 495 80<178.248 461.191>
LayerCount: 2
Fore
SplineSet
305 15 m 3
 393 15 495 86 495 310 c 3
 495 527 437.004 635 305 635 c 3
 146.921 635 115 534.02 115 310 c 3
 115 81.998 228.993 15 305 15 c 3
305 -10 m 3
 192.982 -10 35 92 35 310 c 3
 35 533.002 134.974 660 305 660 c 3
 473.027 660 575 523.021 575 310 c 3
 575 82.998 420.018 -10 305 -10 c 3
EndSplineSet
EndChar

StartChar: G
Encoding: 71 71 14
Width: 620
VWidth: 0
Flags: W
HStem: -10 25<243.578 371.356> 240 30<320 444.984 530.016 590> 630 20G<470 495> 635 25<237.371 366.39>
VStem: 30 85<188.178 442.485> 445 85<120.732 240> 470 25<605.661 650>
LayerCount: 2
Fore
SplineSet
445 220 m 3xdc
 445 240 445 240 425 240 c 2
 330 240 l 2
 320 240 320 240 320 250 c 2
 320 270 l 1
 590 270 l 1
 590 250 l 2
 590 240 590 240 580 240 c 2
 550 240 l 2
 530 240 530 240 530 220 c 3
 530 93.999 441.866 -10 305 -10 c 3
 178.401 -10 30 108.994 30 310 c 3
 30 535.056 180.803 660 305 660 c 3xdc
 355.09 660 438.5 625 450 605 c 1
 465 605 470 610 470 625 c 1
 470 650 l 9
 495 650 l 25
 495 510 l 1xea
 486 555 391.052 635 305 635 c 3
 188.996 635 115 561.005 115 310 c 3
 115 90.9951 206.995 15 305 15 c 3
 419.504 15 445 84.9922 445 220 c 3xdc
EndSplineSet
EndChar

StartChar: V
Encoding: 86 86 15
Width: 649
VWidth: 0
Flags: W
HStem: 0 21G<281.793 370.711> 625 25<5.00824 67.6507 154.717 209.992 478.008 540.001 570.922 643.992>
LayerCount: 2
Fore
SplineSet
540 605 m 2
 544.149 617.179 540 625 527 625 c 2
 488 625 l 2
 478 625 478 630 478 640 c 10
 478 650 l 25
 644 650 l 25
 644 640 l 18
 644 630 644 625 634 625 c 2
 594 625 l 2
 579 625 572 617 567 605 c 2
 364 0 l 25
 289 0 l 9
 71 605 l 18
 66.3975 617.879 60 625 45 625 c 2
 15 625 l 2
 5 625 5 630 5 640 c 10
 5 650 l 25
 210 650 l 25
 210 640 l 18
 210 630 210 625 200 625 c 2
 170 625 l 2
 158 625 148.711 621.567 155 605 c 10
 340 70 l 17
 356 70 l 0
 540 605 l 2
EndSplineSet
EndChar

StartChar: P
Encoding: 80 80 16
Width: 490
VWidth: 0
Flags: W
HStem: 0 25<10 74.9393 145.076 225> 299.997 25.002<145 305.749> 625 25<10 74.9237 145.076 310.871>
VStem: 75 70<25.0001 300 325 625> 395 75<396.661 543.005>
LayerCount: 2
Fore
SplineSet
245 324.999 m 3
 265 324.999 395 334 395 460 c 3
 395 606.055 321 625 215 625 c 2
 165 625 l 2
 145 625 145 625 145 605 c 2
 145 325 l 1
 245 324.999 l 3
245.001 299.997 m 27
 145 300 l 1
 145 45 l 2
 145 25 145 25 165 25 c 2
 200 25 l 2
 215 25 l 2
 225 25 225 24.998 225 15 c 2
 225 0 l 1
 10 0 l 1
 10 15 l 2
 10 24.998 10 25 20 25 c 2
 55 25 l 2
 75.252 25 75 25 75 45 c 2
 75 605 l 2
 75 625 75 625 55 625 c 2
 20 625 l 2
 10 625 10 625 10 635 c 2
 10 650 l 1
 245 650 l 2
 353 650 470 586.062 470 460 c 3
 470 368.803 352.676 299.997 245.001 299.997 c 27
EndSplineSet
EndChar

StartChar: C
Encoding: 67 67 17
Width: 540
VWidth: 0
Flags: W
HStem: -10 25<237.561 389.065> 635 25<238.227 377.458>
VStem: 30 85<173.626 435.38> 490 25<530 550.905 595.028 610>
LayerCount: 2
Fore
SplineSet
305 660 m 7
 411.118 660 463 609 480 595 c 5
 487.5 595.5 490 602.25 490 610 c 13
 515 610 l 29
 515 530 l 5
 490 530 l 5
 475 572 401.747 635 305 635 c 7
 154 635 115.439 488.332 115 310 c 4
 115 127.999 168.941 15 305 15 c 7
 345.852 15 467 31 480 100 c 5
 500 70 l 5
 443 0 344.747 -10 305 -10 c 7
 137.988 -10 30 121.994 30 310 c 7
 30 476.061 142.949 660 305 660 c 7
EndSplineSet
EndChar

StartChar: Q
Encoding: 81 81 18
Width: 610
VWidth: 0
Flags: W
HStem: -140 25<495.211 589.693> -10 25<248.579 358.394> 119.997 25.0029<300 321.406> 635 25<229.655 371.71>
VStem: 35 80<182.973 468.556> 495 80<175.475 461.191>
LayerCount: 2
Fore
SplineSet
535 -115 m 3
 542.84 -115 581 -111 595 -100 c 1
 595 -125 l 1
 578.333 -134.667 540.584 -140 505 -140 c 3
 436.508 -140 388 -83.333 366 -4 c 1
 345 -9 332.48 -10 305 -10 c 3
 192.982 -10 35 92 35 310 c 3
 35 533.002 134.974 660 305 660 c 3
 473.027 660 575 523.021 575 310 c 3
 575 153.972 507 62 421 19 c 1
 445.667 -49.333 474 -115 535 -115 c 3
414 50 m 1
 474 89 495 165.194 495 310 c 3
 495 527 437.004 635 305 635 c 3
 146.921 635 115 534.02 115 310 c 3
 115 81.998 228.993 15 305 15 c 3
 328.321 15 344.333 18.667 359 23 c 1
 348.333 73.333 327.338 119.997 300 119.997 c 1
 300 145 l 1
 370.333 146.667 392.333 109 414 50 c 1
EndSplineSet
EndChar

StartChar: W
Encoding: 87 87 19
Width: 891
VWidth: 0
Flags: W
HStem: 0 21G<262.455 344.302 551.27 633.036> 625 25<5 67.7903 144.998 200 710 772.001 813.083 886>
LayerCount: 2
Fore
SplineSet
465 470 m 1
 607 60 l 1
 772 603 l 2
 775.762 615.304 772 625 759 625 c 2
 720 625 l 2
 710 625 710 625 710 635 c 2
 710 650 l 1
 886 650 l 1
 886 635 l 2
 886 625 886 625 876 625 c 2
 836 625 l 2
 821 625 812.293 615.576 809 603 c 2
 627 0 l 1
 558 0 l 1
 452 315 l 1
 337 0 l 1
 269 0 l 1
 71 605 l 2
 66.7461 617.998 60 625 45 625 c 2
 15 625 l 2
 5 625 5 625 5 635 c 2
 5 650 l 1
 200 650 l 1
 200 635 l 2
 200 625 200 625 190 625 c 2
 160 625 l 2
 148 625 139.668 621.896 145 605 c 2
 317 60 l 1
 428 365 l 1
 395.028 470.034 l 1
 465 470 l 1
EndSplineSet
EndChar

StartChar: Z
Encoding: 90 90 20
Width: 530
VWidth: 0
Flags: W
HStem: 0 30<114.996 469.984> 620 30<60.0165 415.003>
VStem: 30 30<560 619.984> 470 30<30.0165 90>
LayerCount: 2
Fore
SplineSet
30 10 m 2
 30 26.667 30.167 39.5 35 45 c 1
 415 600 l 2
 426.231 616.552 420 620 400 620 c 2
 80 620 l 6
 60 620 60 620 60 600 c 6
 60 570 l 6
 60 560 60 560 50 560 c 6
 30 560 l 1
 30 650 l 1
 500 650 l 1
 500 625 l 2
 500 615.333 498.703 610.408 495 605 c 2
 115 50 l 2
 103.083 32.2822 110.002 30 130 30 c 2
 450 30 l 2
 470 30 470 30 470 50 c 2
 470 80 l 2
 470 90 470 90 480 90 c 2
 500 90 l 1
 500 0 l 1
 30 0 l 1
 30 10 l 2
EndSplineSet
EndChar

StartChar: M
Encoding: 77 77 21
Width: 785
VWidth: 0
Flags: W
HStem: 0 25<10 79.2299 110.994 180 565 634.311 705.661 775> 625 25<10 79.0056 705.994 775>
VStem: 80 30<25.4125 595> 635 70<25.0044 595>
LayerCount: 2
Fore
SplineSet
775 650 m 1
 775 635 l 2
 775 625 775 625 765 625 c 2
 725 625 l 2
 712 625 705 618 705 605 c 2
 705 45 l 2
 705 31 710 25 725 25 c 2
 765 25 l 2
 775 25 775 25 775 15 c 2
 775 0 l 1
 565 0 l 1
 565 15 l 2
 565 25 565 25 575 25 c 2
 615 25 l 2
 627 25 635 27 635 45 c 2
 635 595 l 1
 367 0 l 1
 110 595 l 1
 110 45 l 2
 110 32 117 25 130 25 c 2
 170 25 l 2
 180 25 180 25 180 15 c 2
 180 0 l 1
 10 0 l 1
 10 15 l 2
 10 25 10 25 20 25 c 2
 60 25 l 2
 75 25 80 32 80 45 c 2
 80 605 l 2
 80 618 73 625 60 625 c 2
 20 625 l 2
 10 625 10 625 10 635 c 2
 10 650 l 1
 160 650 l 1
 385 110 l 1
 630 650 l 1
 775 650 l 1
EndSplineSet
EndChar

StartChar: N
Encoding: 78 78 22
Width: 600
VWidth: 0
Flags: W
HStem: -10 21G<506.446 520> 0 25<10 79.2299 110.994 180> 625 25<10 79.0056 420 489.006 520.77 590>
VStem: 80 30<25.4125 595> 490 30<144 624.588>
LayerCount: 2
Fore
SplineSet
490 144 m 1x78
 490 605 l 2
 490 618 483 625 470 625 c 2
 430 625 l 2
 420 625 420 625 420 635 c 2
 420 650 l 1
 590 650 l 1
 590 635 l 2
 590 625 590 625 580 625 c 2
 540 625 l 2
 525 625 520 618 520 605 c 2
 520 -10 l 25xb8
 110 595 l 1
 110 45 l 2
 110 32 117 25 130 25 c 2
 170 25 l 2
 180 25 180 25 180 15 c 2
 180 0 l 1
 10 0 l 1
 10 15 l 2
 10 25 10 25 20 25 c 2
 60 25 l 2
 75 25 80 32 80 45 c 2
 80 605 l 2
 80 618 73 625 60 625 c 2
 20 625 l 2
 10 625 10 625 10 635 c 2
 10 650 l 1
 150 650 l 1
 490 144 l 1x78
EndSplineSet
EndChar

StartChar: S
Encoding: 83 83 23
Width: 505
VWidth: 0
Flags: W
HStem: -10 25<172.91 326.904> 635 25<175.705 312.458>
VStem: 25 70<442.554 563.797> 405 70<80.0558 214.04> 425 25<530 550.905 595.028 610>
LayerCount: 2
Fore
SplineSet
240 660 m 3xf0
 346.118 660 398 609 415 595 c 1
 422.5 595.5 425 602.25 425 610 c 9
 450 610 l 25
 450 530 l 1
 425 530 l 1xe8
 410 572 336.747 635 240 635 c 3
 175.969 635 95 599.051 95 510 c 3
 95 420.994 179.5 391 240 370 c 0
 306.5 349 475 311.083 475 160 c 3
 475 23.9961 338.459 -10 250 -10 c 7
 162.994 -10 58 9 25 90 c 5
 85 120 l 5
 85 50 174.76 15 250 15 c 7
 298.042 15 405 27.9824 405 140 c 3
 405 253.04 300 279 240 300 c 0
 174 321 25 350.996 25 490 c 3
 25 611 169 660 240 660 c 3xf0
EndSplineSet
EndChar

StartChar: K
Encoding: 75 75 24
Width: 590
VWidth: 0
Flags: W
HStem: 0 25<10 74.9237 145.076 205 360 425.004 511.511 585> 625 25<10 74.9237 145.076 211 354 421.003 470.946 550>
VStem: 75 70<25.0001 248 298 625>
LayerCount: 2
Fore
SplineSet
253 368 m 1
 505 45 l 2
 517.209 29.3516 525 25 545 25 c 2
 555 25 l 2
 565 25 585 25 585 15 c 2
 585 0 l 1
 360 0 l 1
 360 15 l 2
 360 25 360 25 370 25 c 2
 405 25 l 2
 425 25 437.302 29.4258 425 45 c 2
 207 321 l 1
 145 248 l 1
 145 45 l 2
 145 25 145 25 165 25 c 2
 195 25 l 2
 205 25 205 25 205 15 c 2
 205 0 l 1
 10 0 l 1
 10 15 l 2
 10 25 10 25 20 25 c 2
 55 25 l 2
 75 25 75 25 75 45 c 2
 75 605 l 2
 75 625 75 625 55 625 c 2
 20 625 l 2
 10 625 10 625 10 635 c 2
 10 650 l 1
 211 650 l 1
 211 635 l 2
 211 625 211 625 201 625 c 2
 165 625 l 2
 145 625 145 625 145 605 c 2
 145 298 l 5
 421 605 l 2
 429.996 615.007 421 625 408 625 c 2
 364 625 l 2
 354 625 354 625 354 635 c 2
 354 650 l 1
 550 650 l 1
 550 635 l 2
 550 625 550 625 540 625 c 2
 500 625 l 2
 485 625 471.919 615.066 463 605 c 2
 253 368 l 1
EndSplineSet
EndChar

StartChar: Y
Encoding: 89 89 25
Width: 595
VWidth: 0
Flags: W
HStem: 0 25<195 259.924 330.076 390> 625 25<5 79.852 164.997 230 396 468.295 508.876 590>
VStem: 260 70<25.0001 283>
LayerCount: 2
Fore
SplineSet
165 605 m 2
 321 327 l 1
 468 605 l 2
 474.495 617.282 468 625 455 625 c 2
 406 625 l 2
 396 625 396 625 396 635 c 2
 396 650 l 1
 590 650 l 1
 590 635 l 2
 590 625 590 625 580 625 c 2
 540 625 l 2
 525 625 509.367 616.852 503 605 c 2
 330 283 l 5
 330 45 l 2
 330 25 330 25 350 25 c 2
 380 25 l 2
 390 25 390 25 390 15 c 2
 390 0 l 1
 195 0 l 1
 195 15 l 2
 195 25 195 25 205 25 c 2
 240 25 l 2
 260 25 260 25 260 45 c 2
 260 290 l 1
 85 605 l 2
 75.167 622.7 65 625 45 625 c 2
 15 625 l 2
 5 625 5 625 5 635 c 2
 5 650 l 1
 230 650 l 1
 230 635 l 2
 230 625 230 625 220 625 c 2
 185 625 l 2
 165 625 155.644 621.673 165 605 c 2
EndSplineSet
EndChar

StartChar: X
Encoding: 88 88 26
Width: 560
VWidth: 0
Flags: W
HStem: 0 25<5 86.06 126.674 199 320 385.003 480.041 555> 625 25<15 90.0678 174.997 240 361 433.317 473.986 555>
LayerCount: 2
Fore
SplineSet
250 306.999 m 1
 95 605 l 2
 85.7773 623.029 75 625 55 625 c 2
 25 625 l 2
 15 625 15 625 15 635 c 2
 15 650 l 1
 240 650 l 1
 240 635 l 2
 240 625 240 625 230 625 c 2
 195 625 l 2
 175 625 166.392 622.072 175 605 c 2
 295 367 l 5
 433 605 l 2
 439.971 617.022 433 625 420 625 c 2
 371 625 l 2
 361 625 361 625 361 635 c 2
 361 650 l 1
 555 650 l 1
 555 635 l 2
 555 625 555 625 545 625 c 2
 505 625 l 2
 490 625 474.633 616.705 468 605 c 2
 314.999 339.997 l 1
 475 45 l 2
 484.531 27.1299 495 25 515 25 c 2
 545 25 l 2
 555 25 555 25 555 15 c 2
 555 0 l 1
 320 0 l 1
 320 15 l 2
 320 25 320 25 330 25 c 2
 365 25 l 2
 385 25 393.551 27.8984 385 45 c 2
 268 279 l 1
 127 45 l 2
 119.827 33.0967 127 25 140 25 c 2
 189 25 l 2
 199 25 199 25 199 15 c 2
 199 0 l 1
 5 0 l 1
 5 15 l 2
 5 25 5 25 15 25 c 2
 55 25 l 2
 70 25 85.4785 33.2344 92 45 c 2
 250 306.999 l 1
EndSplineSet
EndChar

StartChar: c
Encoding: 99 99 27
Width: 455
VWidth: 0
Flags: W
HStem: -10 25<206.53 316.042> 405 25<199.461 315.998>
VStem: 30 80<105.857 319.241>
LayerCount: 2
Fore
SplineSet
260 430 m 7
 300 430 384.5 406 415 351 c 5
 390 286 l 5
 383 349 334.169 405 260 405 c 7
 162.5 405 110 337.062 110 210 c 7
 110 82.9844 181 15 260 15 c 7
 301 15 366 42 399 93 c 5
 415 70 l 5
 358 0 300 -10 260 -10 c 7
 108 -10 30 82.8584 30 210 c 7
 30 351.057 107 430 260 430 c 7
EndSplineSet
EndChar

StartChar: o
Encoding: 111 111 28
Width: 520
VWidth: 0
Flags: W
HStem: -10 25<217.052 311.753> 405 25<205.972 307.931>
VStem: 40 80<115.16 310.882> 400 80<106.305 312.748>
LayerCount: 2
Fore
SplineSet
260 405 m 7
 183.679 405 120 340 120 210 c 3
 120 107 190.5 15 260 15 c 7
 329.5 15 400 76 400 210 c 3
 400 321.288 336.321 405 260 405 c 7
260 -10 m 7
 150.498 -10 40 66.9961 40 210 c 3
 40 351.032 141.488 430 260 430 c 7
 376.501 430 480 360.003 480 210 c 3
 480 59.9971 373.501 -10 260 -10 c 7
EndSplineSet
EndChar

StartChar: e
Encoding: 101 101 29
Width: 455
VWidth: 0
Flags: W
HStem: -10 25<204.949 326.767> 230 25<120 335> 405 25<178.466 272.83>
VStem: 40 79.988<105.419 230 255 334.369> 335 80<255 339.943>
LayerCount: 2
Fore
SplineSet
119.988 230 m 1
 119.988 110.983 157.065 15 260 15 c 3
 305.15 15 349.125 21.5 389 78 c 1
 405 60 l 1
 348 -10 279.747 -10 240 -10 c 3
 129.995 -10 40 73.9766 40 210 c 3
 40 338.009 83.4863 430 230 430 c 3
 299.507 430 415 406.25 415 230 c 1
 119.988 230 l 1
335 255 m 1
 335 340.292 292.508 405 230 405 c 3
 145.494 405 120 334.5 120 255 c 1
 335 255 l 1
EndSplineSet
EndChar

StartChar: l
Encoding: 108 108 30
Width: 260
VWidth: 0
Flags: W
HStem: 0 25<30 94.9393 165.076 230> 690 25<55 85.8> 720 20G<77 165>
VStem: 95 70<25.0001 690>
LayerCount: 2
Fore
SplineSet
165 45 m 18
 165 25 165 25 185 25 c 2
 220 25 l 2
 230 25 230 25 230 15 c 10
 230 0 l 25
 30 0 l 25
 30 15 l 18
 30 25 30 25 40 25 c 2
 75 25 l 2
 95.252 25 95 25 95 45 c 10
 95 670 l 22
 95 690 95 690 75 690 c 6
 65 690 l 6
 55 690 55 690 55 700 c 14
 55 715 l 29
 165 740 l 29
 165 45 l 18
EndSplineSet
EndChar

StartChar: r
Encoding: 114 114 31
Width: 365
VWidth: 0
Flags: W
HStem: 0 20<10 74.7906 145.209 210> 380 25<35 65.8> 385 45<184.805 293.221>
VStem: 75 70<20.0001 352.139 353 380>
LayerCount: 2
Fore
SplineSet
265 430 m 3xb0
 293 430 347 407 360 386 c 1
 330 311 l 1
 313 360 269 385 245 385 c 3xb0
 203 385 145 363 145 290 c 2
 145 40 l 2
 145 20 145 20 165 20 c 2
 200 20 l 2
 210 20 210 20 210 10 c 2
 210 0 l 1
 10 0 l 1
 10 10 l 2
 10 20 10 20 20 20 c 2
 55 20 l 2
 75 20 75 20 75 40 c 2
 75 360 l 2
 75 380 75 380 55 380 c 2
 45 380 l 2
 35 380 35 380 35 390 c 2
 35 405 l 1xd0
 145 430 l 1
 145 353 l 1
 145 404.5 223 430 265 430 c 3xb0
EndSplineSet
EndChar

StartChar: dotlessi
Encoding: 305 305 32
Width: 235
VWidth: 0
Flags: W
HStem: 0 25<20 84.9393 155.076 215> 380 25<45 75.8> 410 20G<67 155>
VStem: 85 70<25.0001 380>
LayerCount: 2
Fore
SplineSet
155 45 m 18
 155 25 155 25 175 25 c 2
 205 25 l 2
 215 25 215 25 215 15 c 10
 215 0 l 25
 20 0 l 25
 20 15 l 18
 20 25 20 25 30 25 c 2
 65 25 l 2
 85.252 25 85 25 85 45 c 10
 85 360 l 22
 85 380 85 380 65 380 c 6
 55 380 l 6
 45 380 45 380 45 390 c 14
 45 405 l 29
 155 430 l 29
 155 45 l 18
EndSplineSet
EndChar

StartChar: n
Encoding: 110 110 33
Width: 520
VWidth: 0
Flags: W
HStem: 0 25<10 74.9237 145.076 210 310 374.924 445.076 510> 380 25<35 65.8> 405 25<212.823 321.02>
VStem: 75 70<25.0001 380> 375 70<25.0001 367.975>
LayerCount: 2
Fore
SplineSet
265 430 m 3xb8
 312.011 430 445 418.005 445 310 c 2
 445 45 l 2
 445 25 445 25 465 25 c 2
 500 25 l 2
 510 25 510 25 510 15 c 2
 510 0 l 1
 310 0 l 1
 310 15 l 2
 310 25 310 25 320 25 c 2
 355 25 l 2
 375 25 375 25 375 45 c 2
 375 310 l 2
 375 382 310.044 405 265 405 c 3xb8
 231 405 145 381.5 145 290 c 2
 145 45 l 2
 145 25 145 25 165 25 c 2
 200 25 l 2
 210 25 210 25 210 15 c 2
 210 0 l 1
 10 0 l 1
 10 15 l 2
 10 25 10 25 20 25 c 2
 55 25 l 2
 75 25 75 25 75 45 c 2
 75 360 l 2
 75 380 75 380 55 380 c 2
 45 380 l 2
 35 380 35 380 35 390 c 2
 35 405 l 1xd8
 145 430 l 1
 145 353 l 1
 145 404.5 223 430 265 430 c 3xb8
EndSplineSet
EndChar

StartChar: m
Encoding: 109 109 34
Width: 795
VWidth: 0
Flags: W
HStem: 0 25<10 74.9237 145.076 210 300 364.924 435.076 500 585 649.924 720.076 785> 380 25<35 65.8> 405 25<212.823 316.858 487.998 590.969>
VStem: 75 70<25.0001 380> 365 70<25.0001 371.699> 650 70<25.0001 364.636>
LayerCount: 2
Fore
SplineSet
435 45 m 2xbc
 435 25 435 25 455 25 c 2
 490 25 l 2
 500 25 500 25 500 15 c 2
 500 0 l 1
 300 0 l 1
 300 15 l 2
 300 25 300 25 310 25 c 2
 345 25 l 2
 365 25 365 25 365 45 c 2
 365 310 l 2
 365 382 306.512 405 265 405 c 7xbc
 231 405 145 381.5 145 290 c 6
 145 45 l 2
 145 25 145 25 165 25 c 2
 200 25 l 2
 210 25 210 25 210 15 c 2
 210 0 l 1
 10 0 l 1
 10 15 l 2
 10 25 10 25 20 25 c 2
 55 25 l 2
 75 25 75 25 75 45 c 2
 75 360 l 2
 75 380 75 380 55 380 c 2
 45 380 l 2
 35 380 35 380 35 390 c 2
 35 405 l 1xdc
 145 430 l 1
 145 353 l 5
 145 404.5 223 430 265 430 c 7
 312.5 430 382 419 415 375 c 1
 421 397 504 430 545 430 c 3
 573 430 720 418.005 720 310 c 2
 720 45 l 2
 720 25 720 25 740 25 c 2
 775 25 l 2
 785 25 785 25 785 15 c 2
 785 0 l 1
 585 0 l 1
 585 15 l 2
 585 25 585 25 595 25 c 2
 630 25 l 2
 650 25 650 25 650 45 c 2
 650 310 l 2
 650 382 569 405 545 405 c 3
 507 405 441 380 435 348 c 1
 435 45 l 2xbc
EndSplineSet
EndChar

StartChar: p
Encoding: 112 112 35
Width: 520
VWidth: 0
Flags: W
HStem: -230 25<10 69.9393 140.076 210> -10 25<213.603 317.563> 370 25<30 60.8> 400 20G<52 140> 405 25<200.899 317.676>
VStem: 70 70<-205 41 59.4592 368.681> 410 70<104.442 310.372>
LayerCount: 2
Fore
SplineSet
70 -185 m 2xee
 70 350 l 2
 70 370 70 370 50 370 c 2
 40 370 l 2
 30 370 30 370 30 380 c 2
 30 395 l 1
 140 420 l 1xf6
 140 390 l 1
 161 409 230 430 270 430 c 3
 387 430 480 344.001 480 210 c 3
 480 54.9023 384 -10 270 -10 c 3
 222.997 -10 140 30.6562 140 41 c 1
 140 -185 l 2
 140 -205.001 140 -205 160 -205 c 2
 200 -205 l 2
 210 -205 210 -205 210 -215 c 2
 210 -230 l 1
 10 -230 l 1
 10 -215 l 2
 10 -205 10 -205 20 -205 c 2
 50 -205 l 2
 70.252 -205 70 -205 70 -185 c 2xee
140 335 m 2
 140 100 l 2
 140 53 223 15 270 15 c 3
 340 15 410 90.9902 410 210 c 3
 410 315.001 346 405 270 405 c 3xee
 220 405 140 385 140 335 c 2
EndSplineSet
EndChar

StartChar: b
Encoding: 98 98 36
Width: 520
VWidth: 0
Flags: W
HStem: -10 25<199.189 309.036> 0 21G<70 100> 405 25<216.678 319.348> 690 25<30 60.8> 720 20G<52 140>
VStem: 70 70<54.1612 347.264 360 690> 410 70<110.645 312.05>
LayerCount: 2
Fore
SplineSet
140 360 m 1x7e
 152 407 229.85 430 260 430 c 3
 341.024 430 480 381.012 480 210 c 3
 480 32.9551 349.02 -10 250 -10 c 3xbe
 203 -10 152 16 130 40 c 1
 70 0 l 1
 70 670 l 2
 70 690 70 690 50 690 c 2
 40 690 l 2
 30 690 30 690 30 700 c 2
 30 715 l 1
 140 740 l 1
 140 360 l 1x7e
140 295 m 2
 140 100 l 2
 140 53 203 15 250 15 c 3
 361.005 15 410 120.978 410 210 c 3
 410 313 362.044 405 260 405 c 7
 207.99 405 140 345 140 295 c 2
EndSplineSet
EndChar

StartChar: q
Encoding: 113 113 37
Width: 510
VWidth: 0
Flags: W
HStem: -230 25<300 369.924 440.076 500> -10 25<194.024 303.585> 400 20G<380 440> 405 25<200.791 331.135>
VStem: 40 70<98.741 312.085> 370 70<-205 30 51.7786 383.601>
LayerCount: 2
Fore
SplineSet
370 30 m 1xec
 349 13 280 -10 240 -10 c 3
 130 -10 40 69 40 200 c 3
 40 343 121 430 240 430 c 3xdc
 277 430 359 418 380 400 c 1
 440 420 l 1
 440 -185 l 2
 440 -205 440 -205 460 -205 c 2
 490 -205 l 2
 500 -205 500 -205 500 -215 c 2
 500 -230 l 1
 300 -230 l 1
 300 -215 l 2
 300 -205 300 -205 310 -205 c 2
 350 -205 l 2
 370 -205 370 -205 370 -185 c 2
 370 30 l 1xec
370 90 m 2
 370 345 l 2
 370 395 300 405 250 405 c 7
 174 405 110 327.016 110 200 c 3
 110 87.9824 170 15 240 15 c 3
 287 15 370 43 370 90 c 2
EndSplineSet
EndChar

StartChar: period
Encoding: 46 46 39
Width: 200
VWidth: 0
Flags: W
HStem: -10 90<63.2393 136.327>
VStem: 55 90<-1.84979 71.7763>
LayerCount: 2
Fore
SplineSet
100 -10 m 3
 70.7461 -10 55 20.2305 55 35 c 3
 55 52.75 72.249 80 100 80 c 3
 125.761 80 145 52.5071 145 35 c 3
 145 19.248 126.326 -10 100 -10 c 3
EndSplineSet
EndChar

StartChar: f
Encoding: 102 102 40
Width: 260
VWidth: 0
Flags: W
HStem: 0 25<30 40 55 74.9392 145.076 165 180 190> 715 25<174.572 270.366>
VStem: 75 70<25.0001 45 570 673.866>
LayerCount: 2
Fore
SplineSet
245 740 m 7
 166.994 740 75 724.013 75 570 c 2
 75 420 l 1
 30 420 l 1
 30 395 l 1
 75 395 l 1
 75 45 l 2
 75 25 75.25 25.25 55 25 c 2
 40 25 l 2
 30 25 30 25 30 15 c 2
 30 0 l 1
 190 0 l 1
 190 15 l 2
 190 25 190 25 180 25 c 2
 165 25 l 2
 145 25 145 25 145 45 c 2
 145 395 l 1
 265 395 l 1
 265 420 l 1
 145 420 l 1
 145 630 l 2
 145 689 168.69 715 230 715 c 7
 274.345 715 303 679 320 630 c 5
 345 696 l 5
 332 717 297.334 740 245 740 c 7
EndSplineSet
EndChar

StartChar: h
Encoding: 104 104 41
Width: 515
VWidth: 0
Flags: W
HStem: 0 25<10 74.9237 145.076 210 310 374.924 445.076 510> 405 25<217.826 338.821> 690 25<35 65.8> 720 20G<57 145>
VStem: 75 70<25.0001 356.452 373 690> 375 70<25.0001 378.03>
LayerCount: 2
Fore
SplineSet
445 310 m 2
 445 45 l 2
 445 25 445 25 465 25 c 2
 500 25 l 2
 510 25 510 25 510 15 c 2
 510 0 l 1
 310 0 l 1
 310 15 l 2
 310 25 310 25 320 25 c 2
 355 25 l 2
 375 25 375 25.001 375 45 c 2
 375 330 l 2
 375 392 322.13 405 275 405 c 7
 218 405 145 364 145 305 c 2
 145 45 l 2
 145 25 145 25 165 25 c 2
 200 25 l 2
 210 25 210 25 210 15 c 2
 210 0 l 1
 10 0 l 1
 10 15 l 2
 10 25 10 25 20 25 c 2
 55 25 l 2
 75 25 75 25 75 45 c 2
 75 670 l 2
 75 690 75 690 55 690 c 2
 45 690 l 2
 35 690 35 690 35 700 c 2
 35 715 l 1
 145 740 l 1
 145 373 l 1
 149 395 201.973 430 275 430 c 7
 354.128 430 445 407 445 310 c 2
EndSplineSet
EndChar

StartChar: d
Encoding: 100 100 42
Width: 535
VWidth: 0
Flags: W
HStem: -10 25<195.085 310.979> 0 25<455.076 520> 405 25<192.966 311.277> 690 25<345 375.8> 720 20G<367 455>
VStem: 40 70<90.7535 298.326> 385 70<25 30 59.4592 361.799 380 690>
LayerCount: 2
Fore
SplineSet
385 100 m 2xbe
 385 315 l 2
 385 365 315.507 405 245 405 c 3
 148.479 405 110 313.016 110 190 c 3
 110 87.9561 157.495 15 255 15 c 3
 302 15 385 53 385 100 c 2xbe
385 0 m 17x7e
 385 30 l 1
 364 13 295 -10 255 -10 c 3xbe
 134.5 -10 40 52.999 40 190 c 3
 40 331 132.98 430 235 430 c 3
 305.528 430 365 410 385 380 c 1
 385 670 l 2
 385 690 385 690 365 690 c 2
 355 690 l 2
 345 690 345 690 345 700 c 10
 345 715 l 25
 455 740 l 25
 455 45 l 18
 455 25 455 25 475 25 c 2
 510 25 l 2x7e
 520 25 520 25 520 15 c 10xbe
 520 0 l 25
 385 0 l 17x7e
EndSplineSet
EndChar

StartChar: uni0237
Encoding: 567 567 44
Width: 210
VWidth: 0
Flags: W
HStem: -240 30<-38.0183 17.9279> 380 25<40 70.8> 410 20G<62 150>
VStem: 80 70<-138.242 380>
LayerCount: 2
Fore
SplineSet
80 -30 m 10
 80 360 l 18
 80 381 80 380 60 380 c 2
 50 380 l 2
 40 380 40 380 40 390 c 10
 40 405 l 25
 150 430 l 26
 150 -50 l 18
 150 -114 116 -240 -85 -240 c 0
 -65 -150 l 1
 -59 -165 -40.0664 -210 -10 -210 c 3
 64.1689 -210 80 -156 80 -30 c 10
EndSplineSet
EndChar

StartChar: u
Encoding: 117 117 45
Width: 520
VWidth: 0
Flags: W
HStem: -10 25<208.573 317.424> 0 25<440.076 505> 380 25<30 60.8 330 360.8> 410 20G<52 140 352 440>
VStem: 70 70<73.5757 380> 370 70<25 30 47.1074 380>
LayerCount: 2
Fore
SplineSet
70 360 m 18xbc
 70 380 70 380 50 380 c 2
 40 380 l 2
 30 380 30 380 30 390 c 10
 30 405 l 25
 140 430 l 25
 140 160 l 2
 140 91 173.494 15 260 15 c 3xbc
 307 15 370 43 370 90 c 2
 370 360 l 2
 370 380 370 380 350 380 c 2
 340 380 l 2
 330 380 330 380 330 390 c 10
 330 405 l 25
 440 430 l 25
 440 45 l 18
 440 25 440 25 460 25 c 2
 495 25 l 2x7c
 505 25 505 25 505 15 c 10xbc
 505 0 l 25
 370 0 l 17x7c
 370 30 l 1
 357 8 300 -10 260 -10 c 3
 112.497 -10 70 70 70 160 c 2
 70 360 l 18xbc
EndSplineSet
EndChar

StartChar: t
Encoding: 116 116 46
Width: 365
VWidth: 0
Flags: W
HStem: -10 25<174.738 266.149> 395 25<30 67.2353 140 285>
VStem: 70 70<43.816 395> 115 25<472.991 520>
LayerCount: 2
Fore
SplineSet
140 420 m 1xd0
 285 420 l 5
 285 395 l 5
 140 395 l 1
 140 170 l 2
 140 89 143.5 15 213 15 c 3
 241.071 15 298 27 319 83 c 1
 335 60 l 1
 308 0 241.071 -10 213 -10 c 3
 102.995 -10 70 35 70 170 c 2
 70 395 l 1xe0
 40 395 l 2
 30 395 30 395 30 405 c 2
 30 420 l 3
 73.626 420 115 470.997 115 520 c 0
 140 520 l 1
 140 420 l 1xd0
EndSplineSet
EndChar

StartChar: a
Encoding: 97 97 47
Width: 450
VWidth: 0
Flags: W
HStem: -10 25<135.297 221.27> 0 25<370.076 435> 225 25<262.894 300> 405 25<166.358 264.166>
VStem: 20 80<37.2305 145.218> 300 70<25 60 68.2687 225 244.735 374.941>
LayerCount: 2
Fore
SplineSet
20 90 m 3xbc
 20 194.367 199 222 300 250 c 1
 300 280 l 2
 300 316 297.007 405 230 405 c 3
 137.994 405 88.5 342 65 275 c 1
 45 340 l 1
 72 391 151 430 220 430 c 3
 347.004 430 370 347 370 300 c 2
 370 45 l 2
 370 25 370 25 390 25 c 2
 425 25 l 2x7c
 435 25 435 25 435 15 c 2xbc
 435 0 l 1
 300 0 l 1x7c
 300 60 l 1
 287 38 231.007 -10 160 -10 c 3
 57.3242 -10 20 23.6367 20 90 c 3xbc
300 225 m 1
 183 189 100 174.002 100 100 c 3
 100 52.9971 124.464 15 180 15 c 3xbc
 239.533 15 300 73 300 120 c 2
 300 225 l 1
EndSplineSet
EndChar

StartChar: v
Encoding: 118 118 48
Width: 519
VWidth: 0
Flags: W
HStem: 0 21G<233.147 307.307> 395 25<5 71.9956 149.998 210 343 405.001 440.7 514>
LayerCount: 2
Fore
SplineSet
405 375 m 2
 409.391 387.094 405 395 392 395 c 2
 353 395 l 2
 343 395 343 395 343 405 c 10
 343 420 l 25
 514 420 l 25
 514 405 l 18
 514 395 514 395 504 395 c 2
 464 395 l 2
 449 395 441.461 387.21 437 375 c 2
 300 0 l 25
 242 0 l 9
 76 375 l 18
 70.4639 387.506 65 395 50 395 c 2
 15 395 l 2
 5 395 5 395 5 405 c 10
 5 420 l 25
 210 420 l 25
 210 405 l 18
 210 395 210 395 200 395 c 2
 165 395 l 2
 153 395 143.117 391.328 150 375 c 10
 287 50 l 21
 405 375 l 2
EndSplineSet
EndChar

StartChar: w
Encoding: 119 119 49
Width: 679
VWidth: 0
Flags: W
HStem: 0 21G<192.44 273.68 422.694 498.547> 395 25<5 72.7868 144.998 205 503 565.001 600.922 674>
LayerCount: 2
Fore
SplineSet
340 375 m 1
 375 375 l 1
 475 50 l 1
 565 375 l 2
 568.667 387.333 565 395 552 395 c 2
 513 395 l 2
 503 395 503 395 503 405 c 2
 503 420 l 1
 674 420 l 1
 674 405 l 2
 674 395 674 395 664 395 c 2
 624 395 l 2
 609 395 602 387 597 375 c 2
 493 0 l 1
 429 0 l 1
 344.3 268.647 l 1
 268 0 l 1
 199 0 l 1
 76 375 l 2
 71.7373 387.996 65 395 50 395 c 2
 15 395 l 2
 5 395 5 395 5 405 c 2
 5 420 l 1
 205 420 l 1
 205 405 l 2
 205 395 205 395 195 395 c 2
 160 395 l 2
 148 395 139.552 391.862 145 375 c 2
 250 50 l 1
 340 375 l 1
EndSplineSet
EndChar

StartChar: s
Encoding: 115 115 50
Width: 395
VWidth: 0
Flags: W
HStem: -10 25<141.604 247.789> 400 20G<305 330> 405 25<133.428 243.576>
VStem: 35 70<285.515 377.192> 295 70<49.6726 153.325> 305 25<340 359.952 405.028 420>
LayerCount: 2
Fore
SplineSet
305 340 m 5xd4
 290 382 228.344 405 180 405 c 7
 134.989 405 105 379 105 340 c 7
 105 280 154.882 265.617 190 255 c 4
 233 242 365 207 365 120 c 7
 365 24.9531 280.022 -10 190 -10 c 7
 151.448 -10 45.5 10.5 25 70 c 5
 85 100 l 5
 85 48.5 149.997 15 190 15 c 7
 232 15 295 32.9697 295 100 c 7
 295 166.008 222 185 190 195 c 4
 157.204 205.249 35 229.978 35 320 c 7
 35 390.334 115.542 430 180 430 c 7
 223.333 430 278 419 295 405 c 5xb8
 302.5 405.5 305 412.25 305 420 c 13
 330 420 l 29
 330 340 l 5
 305 340 l 5xd4
EndSplineSet
EndChar

StartChar: z
Encoding: 122 122 51
Width: 400
VWidth: 0
Flags: W
HStem: 0 25<109.996 349.924> 395 25<55.0763 295.004>
VStem: 30 25<335 394.924> 350 25<25.0763 85>
LayerCount: 2
Fore
SplineSet
30 10 m 2
 30 26.667 30.167 39.5 35 45 c 1
 295 375 l 2
 307.666 390.48 300 395 280 395 c 2
 75 395 l 2
 55 395 55 395 55 375 c 2
 55 345 l 2
 55 335 55 335 45 335 c 2
 30 335 l 1
 30 420 l 1
 375 420 l 1
 375 395 l 2
 375 385.333 374.056 380.148 370 375 c 2
 110 45 l 2
 96.6016 28.376 105.002 25 125 25 c 2
 330 25 l 2
 350 25 350 25 350 45 c 2
 350 75 l 2
 350 85 350 85 360 85 c 2
 375 85 l 1
 375 0 l 1
 30 0 l 1
 30 10 l 2
EndSplineSet
EndChar

StartChar: y
Encoding: 121 121 52
Width: 490
VWidth: 0
Flags: WO
HStem: -240 45<89.3642 156.142> 395 25<25 92.4437 169.731 230 304 365.001 400.335 475>
LayerCount: 2
Fore
SplineSet
245 -2 m 9
 96 375 l 18
 90.8809 387.952 85 395 70 395 c 2
 35 395 l 2
 25 395 25 395 25 405 c 10
 25 420 l 25
 230 420 l 25
 230 405 l 18
 230 395 230 395 220 395 c 2
 185 395 l 2
 173 395 164.029 391.684 170 375 c 10
 272 90 l 17
 365 375 l 2
 368.537 387.145 368 395 355 395 c 2
 314 395 l 2
 304 395 304 395 304 405 c 10
 304 420 l 25
 475 420 l 25
 475 405 l 18
 475 395 475 395 465 395 c 2
 425 395 l 2
 410 395 400.238 387.229 397 375 c 2
 283 20 l 18
 230.286 -144.153 217 -240 55 -240 c 0
 75 -150 l 1
 81 -165 99.9336 -195 130 -195 c 3
 169.115 -195 191 -174 245 -2 c 9
EndSplineSet
EndChar

StartChar: g
Encoding: 103 103 53
Width: 480
VWidth: 0
Flags: W
HStem: -240 25<144.146 317.96> -30 20G<78.8334 100> 0 60<119.293 353.597> 125 25<181.193 282.979> 400 20G<414.628 436.667> 405 25<179.291 283.996>
VStem: 10 60<-166.537 -42.5163> 60 70<196.796 360.597> 60 40<82.7656 155.661> 330 70<187.389 352.801> 400 70<-159.946 -38.5439>
LayerCount: 2
Fore
SplineSet
99.7783 175.95 m 1xf8a0
 77.8252 201.63 60 210.971 60 280 c 3
 60 362 111.488 430 230 430 c 3xf5
 284.011 430 348 402 369 377 c 1
 380 393 399.255 408.613 430 420 c 1
 450 360 l 1
 423.01 355.562 396 349 394 321 c 1
 397.5 309 400 273.608 400 260 c 3
 400 224.986 383.029 125 230 125 c 3
 187.336 125 141.664 143.441 120.117 160.472 c 1
 106.833 148.667 100 135.396 100 110 c 3xf8c0
 100 67.6663 190.99 60 240 60 c 3
 343.586 60 470 41 470 -80 c 3
 470 -229.013 309.006 -240 220 -240 c 3
 40.7739 -240 10 -168 10 -110 c 3xfa20
 10 -32 67.6667 -12 90 -10 c 1
 100 -20 l 1xf880
 77.5 -36.5 70 -60.9712 70 -100 c 3xfa
 70 -165.008 114.829 -215 220 -215 c 3
 298 -215 400 -201.02 400 -100 c 3
 400 -7 307.966 0 220 0 c 3
 141.475 0 60 26.5 60 100 c 3
 60 135.015 72 151 99.7783 175.95 c 1xf8a0
230 405 m 3
 133.995 405 130 308.071 130 280 c 3
 130 253.923 133.979 150 230 150 c 3
 329.02 150 330 231 330 280 c 3xf540
 330 326.174 326.005 405 230 405 c 3
EndSplineSet
EndChar

StartChar: x
Encoding: 120 120 54
Width: 500
VWidth: 0
Flags: W
HStem: 0 25<20 103.921 145.652 218 278 338.003 417.128 490> 395 25<10 82.7481 161.997 222 272 344.337 386.635 470>
LayerCount: 2
Fore
SplineSet
221 200 m 25
 88 375 l 18
 80.1807 386.125 77 395 62 395 c 2
 20 395 l 2
 10 395 10 395 10 405 c 10
 10 420 l 25
 222 420 l 25
 222 405 l 18
 222 395 222 395 212 395 c 2
 177 395 l 2
 165 395 151.683 389.512 162 375 c 10
 253 247 l 21
 344 375 l 2
 351.42 385.438 344 395 331 395 c 2
 282 395 l 2
 272 395 272 395 272 405 c 10
 272 420 l 25
 470 420 l 25
 470 405 l 18
 470 395 470 395 460 395 c 2
 408 395 l 2
 393 395 388.593 385.311 381 375 c 2
 272 227 l 25
 412 45 l 18
 420.262 33.4336 423 25 438 25 c 2
 480 25 l 2
 490 25 490 25 490 15 c 10
 490 0 l 25
 278 0 l 25
 278 15 l 18
 278 25 278 25 288 25 c 2
 323 25 l 2
 335 25 348.58 30.6787 338 45 c 10
 239 179 l 17
 146 45 l 2
 138.329 33.9482 146 25 159 25 c 2
 208 25 l 2
 218 25 218 25 218 15 c 10
 218 0 l 25
 20 0 l 25
 20 15 l 18
 20 25 20 25 30 25 c 2
 82 25 l 2
 97 25 101.961 34.3037 109 45 c 2
 221 200 l 25
EndSplineSet
EndChar

StartChar: k
Encoding: 107 107 55
Width: 500
VWidth: 0
Flags: W
HStem: 0 25<10 74.9393 145.076 210 270 335.003 416.373 495> 395 25<264 326.003 375.969 455> 690 25<35 65.8> 720 20G<57 145>
VStem: 75 70<25.0001 140 180 690>
LayerCount: 2
Fore
SplineSet
145 45 m 2
 145 25 145 25 165 25 c 2
 200 25 l 2
 210 25 210 25 210 15 c 2
 210 0 l 1
 10 0 l 1
 10 15 l 2
 10 25 10 25 20 25 c 2
 55 25 l 2
 75.252 25 75 25 75 45 c 2
 75 670 l 2
 75 690 75 690 55 690 c 2
 45 690 l 2
 35 690 35 690 35 700 c 2
 35 715 l 1
 145 740 l 1
 145 180 l 1
 326 375 l 6
 335.414 384.611 326 395 313 395 c 6
 274 395 l 2
 264 395 264 395 264 405 c 2
 264 420 l 1
 455 420 l 1
 455 405 l 2
 455 395 455 395 445 395 c 2
 405 395 l 2
 390 395 376.972 385.022 368 375 c 2
 257 251 l 1
 410 45 l 2
 421.836 29.0635 430 25 450 25 c 2
 485 25 l 2
 495 25 495 25 495 15 c 2
 495 0 l 1
 270 0 l 1
 270 15 l 2
 270 25 270 25 280 25 c 2
 315 25 l 2
 335 25 346.474 28.8027 335 45 c 2
 216 213 l 1
 145 140 l 1
 145 45 l 2
EndSplineSet
EndChar

StartChar: hyphen
Encoding: 45 45 57
Width: 450
VWidth: 0
Flags: W
HStem: 200 50<70 380>
VStem: 70 310<200 250>
LayerCount: 2
Fore
SplineSet
70 250 m 5
 380 250 l 5
 380 200 l 5
 70 200 l 5
 70 250 l 5
EndSplineSet
EndChar

StartChar: equal
Encoding: 61 61 58
Width: 480
VWidth: 0
Flags: W
HStem: 105 50<60 420> 275 50<60 420>
LayerCount: 2
Fore
SplineSet
60 155 m 5
 420 155 l 5
 420 105 l 5
 60 105 l 5
 60 155 l 5
60 325 m 5
 420 325 l 5
 420 275 l 5
 60 275 l 5
 60 325 l 5
EndSplineSet
EndChar

StartChar: underscore
Encoding: 95 95 59
Width: 420
VWidth: 0
Flags: W
HStem: 0 50<60 360>
VStem: 60 300<0 50>
LayerCount: 2
Fore
SplineSet
60 50 m 1
 360 50 l 1
 360 0 l 1
 60 0 l 1
 60 50 l 1
EndSplineSet
Validated: 1
EndChar

StartChar: comma
Encoding: 44 44 61
Width: 220
VWidth: 0
Flags: W
HStem: -105 180
VStem: 100 60<-38.167 52.6823>
LayerCount: 2
Fore
SplineSet
60 -80 m 1
 97.2275 -54.7432 100 -17 100 0 c 3
 100 19 83 35 70 35 c 1
 70 54 95.333 75 120 75 c 3
 145.761 75 160 50.002 160 35 c 3
 160 -27.501 119.333 -74.5 60 -105 c 1
 60 -80 l 1
EndSplineSet
Validated: 1
EndChar

StartChar: quotesingle
Encoding: 39 39 63
Width: 180
VWidth: 0
Flags: W
HStem: 430 230<70 110>
VStem: 50 80<553.5 655.315>
LayerCount: 2
Fore
SplineSet
110 430 m 5
 70 430 l 5
 50 620 l 1
 50 637.75 62.249 660 90 660 c 3
 115.761 660 130 635.002 130 620 c 1
 110 430 l 5
EndSplineSet
Validated: 1
EndChar

StartChar: one
Encoding: 49 49 66
Width: 440
VWidth: 0
Flags: W
HStem: 0 25<155 219.939 290.076 355> 630 20G<246.842 290>
VStem: 220 70<25.0001 576.266>
LayerCount: 2
Fore
SplineSet
290 45 m 18
 290 25 290 25 310 25 c 2
 345 25 l 2
 355 25 355 25 355 15 c 10
 355 0 l 25
 155 0 l 25
 155 15 l 18
 155 25 155 25 165 25 c 2
 200 25 l 2
 220.252 25 220 25 220 45 c 10
 220 557 l 22
 220 577 218.862 583.646 200 577 c 6
 95 530 l 2
 85.8721 525.914 85 530 85 540 c 10
 85 555 l 25
 290 650 l 25
 290 45 l 18
EndSplineSet
Substitution2: "onum" uniF644
EndChar

StartChar: zero
Encoding: 48 48 67
Width: 440
VWidth: 0
Flags: W
HStem: -10 25<174.131 269.793> 635 25<170.588 267.804>
VStem: 30 80<139.865 504.776> 330 80<135.608 501.007>
LayerCount: 2
Fore
SplineSet
220 15 m 3
 308 15 330 86 330 310 c 3
 330 527 323.697 635 220 635 c 3
 116.98 635 110 534.02 110 310 c 3
 110 81.9978 143.993 15 220 15 c 3
220 -10 m 3
 107.982 -10 30 92 30 310 c 3
 30 533.002 90.9648 660 220 660 c 3
 355.093 660 410 523.021 410 310 c 7
 410 82.998 335.018 -10 220 -10 c 3
EndSplineSet
Substitution2: "onum" uniF643
EndChar

StartChar: seven
Encoding: 55 55 68
Width: 440
VWidth: 0
Flags: W
HStem: 0 21G<110 177.167> 590 60<75.0001 335.002>
VStem: 50 25<530 589.924>
LayerCount: 2
Fore
SplineSet
110 0 m 1
 335 570 l 6
 341.697 588.847 340 590 320 590 c 6
 95 590 l 2
 75 590 75 590 75 570 c 2
 75 540 l 2
 75 530 75 530 65 530 c 2
 50 530 l 1
 50 650 l 1
 390 650 l 1
 390 620 l 2
 390 610.333 387.194 606.175 385 600 c 2
 170 0 l 25
 110 0 l 1
EndSplineSet
Substitution2: "onum" uniF64A
EndChar

StartChar: plus
Encoding: 43 43 69
Width: 430
VWidth: 0
Flags: W
HStem: 200 50<60 190 240 370>
VStem: 190 50<70 200 250 380>
LayerCount: 2
Fore
SplineSet
190 380 m 5
 240 380 l 5
 240 250 l 5
 370 250 l 5
 370 200 l 5
 240 200 l 5
 240 70 l 5
 190 70 l 5
 190 200 l 5
 60 200 l 5
 60 250 l 5
 190 250 l 5
 190 380 l 5
EndSplineSet
EndChar

StartChar: slash
Encoding: 47 47 70
Width: 395
VWidth: 0
Flags: W
HStem: 710 20G<327.289 380>
LayerCount: 2
Fore
SplineSet
380 730 m 29
 60 -100 l 29
 15 -100 l 1
 335 730 l 25
 380 730 l 29
EndSplineSet
EndChar

StartChar: backslash
Encoding: 92 92 71
Width: 400
VWidth: 0
Flags: HW
HStem: 710 20G<10 77.7108>
LayerCount: 2
Fore
SplineSet
15 730 m 25
 65 730 l 29
 385 -100 l 5
 335 -100 l 25
 15 730 l 25
EndSplineSet
EndChar

StartChar: bar
Encoding: 124 124 72
Width: 220
VWidth: 0
Flags: W
HStem: 710 20G<85 135>
VStem: 85 50<-100 730>
LayerCount: 2
Fore
SplineSet
135 730 m 25
 135 -100 l 21
 85 -100 l 13
 85 730 l 17
 135 730 l 25
EndSplineSet
EndChar

StartChar: bracketleft
Encoding: 91 91 77
Width: 305
VWidth: 0
Flags: W
HStem: -100 25<130.076 265> 705 25<130.076 265>
VStem: 70 60<-75 705>
LayerCount: 2
Fore
SplineSet
265 -100 m 5
 70 -100 l 29
 70 730 l 25
 265 730 l 1
 265 705 l 25
 150 705 l 2
 130 705 130 705 130 685 c 2
 130 -55 l 6
 130 -75 130 -75 150 -75 c 6
 265 -75 l 21
 265 -100 l 5
EndSplineSet
EndChar

StartChar: greater
Encoding: 62 62 78
Width: 375
VWidth: 0
Flags: W
VStem: 100 175
LayerCount: 2
Fore
SplineSet
275 219 m 5
 125 44 l 5
 100 54 l 5
 195.931 219 l 5
 100 384 l 5
 125 394 l 5
 275 219 l 5
EndSplineSet
EndChar

StartChar: less
Encoding: 60 60 79
Width: 375
VWidth: 0
Flags: W
VStem: 100 175
LayerCount: 2
Fore
SplineSet
100 219 m 5
 250 394 l 5
 275 384 l 5
 179.069 219 l 5
 275 54 l 5
 250 44 l 5
 100 219 l 5
EndSplineSet
EndChar

StartChar: bracketright
Encoding: 93 93 80
Width: 305
VWidth: 0
Flags: W
HStem: -100 25<40 174.924> 705 25<40 174.924>
VStem: 175 60<-74.9999 705>
LayerCount: 2
Fore
SplineSet
40 -100 m 5
 40 -75 l 13
 155 -75 l 6
 175 -75 175 -75 175 -55 c 6
 175 685 l 2
 175 705 175 705 155 705 c 2
 40 705 l 25
 40 730 l 1
 235 730 l 25
 235 -100 l 29
 40 -100 l 5
EndSplineSet
EndChar

StartChar: parenleft
Encoding: 40 40 81
Width: 330
VWidth: 0
Flags: HW
HStem: -230 25<248.687 280> 705 25<244.756 280>
VStem: 60 70<56.2145 426.491>
LayerCount: 2
Fore
SplineSet
280 -100 m 17
 167.982 -100 60 77 60 295 c 3
 60 518.002 150.965 730 280 730 c 9
 280 705 l 17
 176.98 705 130 519.02 130 295 c 3
 130 66.998 203.993 -75 280 -75 c 9
 280 -100 l 17
EndSplineSet
EndChar

StartChar: parenright
Encoding: 41 41 82
Width: 330
VWidth: 0
Flags: HW
HStem: -230 25<50 81.3129> 705 25<50 85.2437>
VStem: 200 70<56.2146 426.491>
LayerCount: 2
Fore
SplineSet
50 -100 m 9
 50 -75 l 17
 126.007 -75 200 66.998 200 295 c 7
 200 519.021 153.02 705 50 705 c 9
 50 730 l 17
 179.035 730 270 518.002 270 295 c 7
 270 77 162.018 -100 50 -100 c 9
EndSplineSet
EndChar

StartChar: numbersign
Encoding: 35 35 85
Width: 480
VWidth: 0
Flags: W
HStem: 0 21G<90 148.333 240 298.333> 120 50<20 110 181.667 260 331.667 430> 250 50<50 143.333 215 293.333 365 460> 400 20G<176.667 235 326.667 385>
LayerCount: 2
Fore
SplineSet
348.333 250 m 1
 331.667 170 l 1
 430 170 l 1
 430 120 l 1
 315 120 l 1
 295 0 l 1
 240 0 l 1
 260 120 l 1
 165 120 l 1
 145 0 l 1
 90 0 l 1
 110 120 l 1
 20 120 l 1
 20 170 l 1
 126.667 170 l 1
 143.333 250 l 1
 50 250 l 1
 50 300 l 1
 160 300 l 1
 180 420 l 1
 235 420 l 1
 215 300 l 1
 310 300 l 1
 330 420 l 1
 385 420 l 1
 365 300 l 1
 460 300 l 1
 460 250 l 1
 348.333 250 l 1
293.333 250 m 1
 198.333 250 l 1
 181.667 170 l 1
 276.667 170 l 1
 293.333 250 l 1
EndSplineSet
Validated: 1
EndChar

StartChar: two
Encoding: 50 50 86
Width: 440
VWidth: 0
Flags: W
HStem: 0 60<111.756 375> 635 25<151.358 267.555>
VStem: 315 70<422.582 592.999> 375 25<60.0763 120>
LayerCount: 2
Fore
SplineSet
205 660 m 3xe0
 330 660 385 602.501 385 510 c 3xe0
 385 331.975 110 80 110 80 c 6
 98.9492 63.3271 105 60 125 60 c 6
 355 60 l 2
 375.001 60 375 60 375 80 c 2
 375 110 l 2xd0
 375 120 375 120 385 120 c 2xe0
 400 120 l 1
 400 0 l 1xd0
 40 0 l 1
 40 60 l 2
 40 69.667 40.9932 74.8135 45 80 c 1
 144 175.333 315 379.238 315 510 c 3
 315 595.006 280.192 635 215 635 c 3
 122.994 635 73.5 572 50 505 c 1
 30 570 l 1
 57 621 136 660 205 660 c 3xe0
EndSplineSet
Substitution2: "onum" uniF645
EndChar

StartChar: exclam
Encoding: 33 33 87
Width: 220
VWidth: 0
Flags: W
HStem: -10 90<73.2393 146.327> 640 20G<96.1245 122.881>
VStem: 65 90<-1.84979 71.7763> 70 80<353.316 653.575> 100 20<160 340.987>
LayerCount: 2
Fore
SplineSet
120 160 m 1xc8
 100 160 l 1xc8
 100 422.5 70 423.496 70 540 c 7
 70 633.135 82.249 660 110 660 c 7
 135.761 660 150 634.021 150 540 c 7xd0
 150 421.483 120 421.5 120 160 c 1xc8
EndSplineSet
Refer: 39 46 N 1 0 0 1 10 0 2
EndChar

StartChar: at
Encoding: 64 64 88
Width: 680
VWidth: 0
Flags: W
HStem: -170 25<365.545 550> -20 35<470.493 531.538> -10 25<297.626 349.356> 265 25<354.073 400> 405 25<294.315 454.705>
VStem: 30 70<9.60638 242.929> 210 70<24.5591 199.564> 400 70<15.0073 265> 580 70<94.0397 292.647>
LayerCount: 2
Fore
SplineSet
489 -20 m 3xdf80
 429.964 -20 400 0 400 0 c 1
 400 60 l 1
 387 38 368.5 -10 310 -10 c 3xbf80
 224.5 -10 210 52.9922 210 120 c 3
 210 208 271.5 290 470 290 c 1
 470 45 l 2
 470 25 470 15 490 15 c 3
 543.5 15 580 79.9082 580 190 c 3
 580 317.009 498.005 405 390 405 c 3
 161.5 405 100 245 100 140 c 3
 100 -22 147.5 -145 550 -145 c 0
 550 -170 l 3
 99.5001 -170 30 -51 30 140 c 3
 30 249 109.199 430 390 430 c 3
 570 430 650 334.195 650 190 c 3
 650 94.999 581.5 -20 489 -20 c 3xdf80
400 265 m 1
 314.5 265 280 186 280 120 c 3
 280 72.9971 284.5 15 320 15 c 3
 353.241 15 400 73 400 120 c 2
 400 265 l 1
EndSplineSet
Validated: 1
EndChar

StartChar: grave
Encoding: 96 96 90
Width: 285
VWidth: 0
Flags: W
HStem: 495 165
VStem: 30 225
LayerCount: 2
Fore
SplineSet
30 630 m 5
 80 660 l 1
 255 510 l 1
 245 495 l 1
 30 630 l 5
EndSplineSet
EndChar

StartChar: asterisk
Encoding: 42 42 91
Width: 410
VWidth: 0
Flags: W
VStem: 195 25<230 282.5 595.75 650>
LayerCount: 2
Fore
SplineSet
250 440 m 1
 380 529 l 1
 370 554 l 1
 235 495 l 1
 220 650 l 1
 195 650 l 1
 175 495 l 1
 40 554 l 1
 30 529 l 1
 160 440 l 1
 30 349 l 1
 40 324 l 1
 175 380 l 1
 195 230 l 1
 220 230 l 1
 235 380 l 1
 370 324 l 1
 380 349 l 1
 250 440 l 1
EndSplineSet
EndChar

StartChar: asciicircum
Encoding: 94 94 92
Width: 370
VWidth: 0
Flags: W
HStem: 515 145
VStem: 30 310
LayerCount: 2
Fore
SplineSet
185 660 m 1
 340 530 l 1
 330 515 l 1
 185 600.931 l 5
 40 515 l 1
 30 530 l 1
 185 660 l 1
EndSplineSet
EndChar

StartChar: acute
Encoding: 180 180 93
Width: 285
VWidth: 0
Flags: W
HStem: 495 165
VStem: 30 225
LayerCount: 2
Fore
SplineSet
255 630 m 5
 40 495 l 1
 30 510 l 1
 205 660 l 1
 255 630 l 5
EndSplineSet
EndChar

StartChar: exclamdown
Encoding: 161 161 95
Width: 180
VWidth: 0
Flags: W
HStem: -235 21G<96.1245 122.881> 350 80<74.5238 144.136>
VStem: 70 80<-219.866 168.693 354.685 424.807> 100 20<156.729 265>
LayerCount: 2
Fore
SplineSet
120 265 m 1xd0
 120 225 150 -12.9619 150 -65 c 3
 150 -159.021 135.761 -235 110 -235 c 3
 82.249 -235 70 -158.135 70 -65 c 3xe0
 70 -15 100 225 100 265 c 1
 120 265 l 1xd0
110 430 m 3
 136.326 430 150 402.253 150 390 c 3
 150 374.998 135.761 350 110 350 c 3
 82.249 350 70 372.25 70 390 c 3
 70 404.77 80.7461 430 110 430 c 3
EndSplineSet
Validated: 1
EndChar

StartChar: three
Encoding: 51 51 96
Width: 440
VWidth: 0
Flags: W
HStem: -10 25<149.138 257.601> 310 54.999<175 233.572> 635 25<157.845 256.241>
VStem: 315 70<439.218 590.73> 335 70<77.8797 235.85>
LayerCount: 2
Fore
SplineSet
195 15 m 7xe8
 265 15 335 50.9902 335 170 c 3xe8
 335 232 272.25 310 175 310 c 1
 175 364.999 l 17
 195 364.999 315 404.881 315 510 c 3
 315 595.012 266.033 635 205 635 c 3
 141.969 635 102 579 85 530 c 1
 55 605 l 1
 68 626 152.666 660 205 660 c 3
 306.242 660 385 619.005 385 510 c 3xf0
 385 434.834 328 363 259 345 c 1
 347 327 405 243 405 170 c 3
 405 37.9961 309 -10 195 -10 c 7
 156.448 -10 60.5 10.5 40 70 c 1
 100 100 l 1
 100 48.5 154.997 15 195 15 c 7xe8
EndSplineSet
Substitution2: "onum" uniF646
EndChar

StartChar: question
Encoding: 63 63 97
Width: 410
VWidth: 0
Flags: W
HStem: -10 90<163.239 236.327> 635 25<136.358 254.854>
VStem: 155 90<-1.84979 71.7763> 187 25<160 294.182> 310 70<425.909 588.47>
LayerCount: 2
Fore
SplineSet
190 660 m 3xd8
 305.01 660 380 608.505 380 510 c 3
 380 402.981 280 317 212 290 c 1
 212 160 l 1
 187 160 l 1
 187 300 l 1
 258 349 310 416.914 310 510 c 3
 310 559 296.021 635 200 635 c 3
 107.994 635 58.5 572 35 505 c 1
 15 570 l 1
 42 621 121 660 190 660 c 3xd8
EndSplineSet
Refer: 39 46 N 1 0 0 1 100 0 2
EndChar

StartChar: five
Encoding: 53 53 98
Width: 440
VWidth: 0
Flags: W
HStem: -10 25<144.138 245.926> 375 40<130.603 250.851> 590 60<130 365>
VStem: 95 35<410 590> 330 70<101.573 293.26> 365 25<530 589.924>
LayerCount: 2
Fore
SplineSet
190 15 m 3xf8
 289.005 15 330 101.816 330 200 c 3xf8
 330 241.235 315 375 170 375 c 3
 147 375 124.588 372.431 95 365 c 0
 95 650 l 1
 390 650 l 1
 390 530 l 1
 375 530 l 2
 365 530 365 530 365 540 c 2
 365 570 l 2xf4
 365 590 365 590 345 590 c 2
 130 590 l 25
 130 410 l 17
 148.027 413.449 163 415 180 415 c 3
 313 415 400 311.122 400 200 c 3
 400 65.9854 299.019 -10 190 -10 c 3
 151.448 -10 55.5 10.5 35 70 c 1
 95 100 l 1
 95 48.5 149.997 15 190 15 c 3xf8
EndSplineSet
Substitution2: "onum" uniF648
EndChar

StartChar: eight
Encoding: 56 56 99
Width: 440
VWidth: 0
Flags: W
HStem: -10 25<158.603 284.864> 635 25<154.871 263.844>
VStem: 25 70<74.2193 240.74> 35 70<434.212 575.62> 315 70<412.998 575.62> 345 70<74.2193 225.337>
LayerCount: 2
Fore
SplineSet
385 490 m 7xd8
 385 611 280 660 210 660 c 3
 137 660 35 611 35 490 c 3xd8
 35 397 144 321 210 300 c 1
 270 279 345 253.018 345 140 c 3
 345 34.9805 276 15 220 15 c 3
 167 15 95 34.9805 95 140 c 3
 95 225.709 110 291 210 330 c 9
 195 350 l 17
 116 326 25 263.044 25 160 c 3
 25 40.9834 119 -10 220 -10 c 3
 324 -10 415 40.9834 415 160 c 3xe4
 415 316.285 276.5 349 210 370 c 1
 149.5 391 105 438.888 105 510 c 3
 105 599.051 143.969 635 210 635 c 3
 273.031 635 315 599.051 315 510 c 3
 315 438.888 294 383 235 347 c 9
 250 330 l 17
 291.5 339 385 388.876 385 490 c 7xd8
EndSplineSet
Substitution2: "onum" uniF64B
EndChar

StartChar: four
Encoding: 52 52 102
Width: 440
VWidth: 0
Flags: W
HStem: 0 25<200 264.939 335.076 400> 172 25<74.7749 265 335 410> 630 20G<254.376 335>
VStem: 265 70<25.0001 172 197 568.45>
LayerCount: 2
Fore
SplineSet
265 568.45 m 1
 75 217 l 2
 70.0908 207.414 72 197 90 197 c 2
 265 197 l 1
 265 568.45 l 1
265 172 m 1
 30 172 l 1
 30 197 l 2
 30 205.5 30.7246 208.586 35 217 c 2
 265 650 l 1
 335 650 l 1
 335 197 l 1
 410 197 l 1
 410 172 l 1
 335 172 l 1
 335 45 l 2
 335 25 335 25 355 25 c 2
 390 25 l 2
 400 25 400 25 400 15 c 2
 400 0 l 1
 200 0 l 1
 200 15 l 2
 200 25 200 25 210 25 c 2
 245 25 l 2
 265.252 25 265 25 265 45 c 2
 265 172 l 1
EndSplineSet
Substitution2: "onum" uniF647
EndChar

StartChar: six
Encoding: 54 54 103
Width: 440
VWidth: 0
Flags: W
HStem: -10 25<181.549 268.809> 330 25<196.303 282.217> 635 25<316.346 390>
VStem: 40 70<141.788 401.585> 330 70<84.2942 275.939>
LayerCount: 2
Fore
SplineSet
145 300 m 17
 172.985 339.767 206 355 240 355 c 3
 346.169 355 400 279.016 400 180 c 3
 400 64.9785 320.05 -10 230 -10 c 3
 121.995 -10 40 111 40 280 c 3
 40 491.009 213.997 660 390 660 c 0
 390 635 l 3
 219.988 635 110 473.041 110 280 c 3
 110 138.893 129.501 15 230 15 c 3
 314 15 330 142.996 330 180 c 3
 330 258.768 308.007 330 240 330 c 3
 213 330 178.153 313.623 145 275 c 9
 145 300 l 17
EndSplineSet
Validated: 1
Substitution2: "onum" uniF649
EndChar

StartChar: braceleft
Encoding: 123 123 105
Width: 360
VWidth: 0
Flags: HW
HStem: -230 25<280.864 330> 705 25<280.657 330>
VStem: 30 300
LayerCount: 2
Fore
SplineSet
330 -100 m 3
 122.99 -100 200 151 30 295 c 5
 212 459 126.773 730 330 730 c 0
 330 705 l 3
 150.662 705 256 427 100 295 c 5
 244 191 152.93 -75 330 -75 c 0
 330 -100 l 3
EndSplineSet
EndChar

StartChar: braceright
Encoding: 125 125 106
Width: 320
VWidth: 0
Flags: HW
HStem: -230 25<-10 39.1363> 705 25<-10 39.3431>
VStem: -10 300
LayerCount: 2
Fore
SplineSet
-10 -100 m 0
 -10 -75 l 0
 167.07 -75 76 191 220 295 c 5
 64 427 169.338 705 -10 705 c 3
 -10 730 l 0
 193.227 730 108 459 290 295 c 5
 120 151 197.01 -100 -10 -100 c 0
EndSplineSet
EndChar

StartChar: asciitilde
Encoding: 126 126 107
Width: 440
VWidth: 0
Flags: W
HStem: 152 25<272.061 330.348> 245 25<111.618 167.74>
VStem: 70 20<208.45 224.191> 350 20<191.44 213.55>
LayerCount: 2
Fore
SplineSet
195 201 m 0
 169.5 241 149.105 245 130 245 c 3
 110.765 245 93.5 222 90 200 c 9
 70 213 l 1
 74 232 108.961 270 160 270 c 3
 191.016 270 219 264 245 221 c 0
 265.384 187.288 285 177 310 177 c 3
 341.016 177 350 205 350 222 c 9
 370 209 l 1
 366 190 336.223 152 280 152 c 3
 253.317 152 218.339 164.39 195 201 c 0
EndSplineSet
EndChar

StartChar: brokenbar
Encoding: 166 166 109
Width: 220
VWidth: 0
Flags: W
HStem: 710 20G<85 135>
VStem: 85 50<-100 240 380 730>
LayerCount: 2
Fore
SplineSet
135 240 m 1
 135 -100 l 5
 85 -100 l 5
 85 240 l 1
 135 240 l 1
85 380 m 1
 85 730 l 1
 135 730 l 17
 135 380 l 1
 85 380 l 1
EndSplineSet
EndChar

StartChar: degree
Encoding: 176 176 111
Width: 380
VWidth: 0
Flags: W
HStem: 420 25<156.736 225.556> 635 25<154.808 223.63>
VStem: 70 50<472.041 609.818> 260 50<469.585 609.389>
LayerCount: 2
Fore
SplineSet
190 420 m 3
 116 420 70 476.992 70 540 c 3
 70 597.035 99.4873 660 190 660 c 3
 286 660 310 596 310 540 c 3
 310 483 280 420 190 420 c 3
190 635 m 7
 146 635 120 590 120 540 c 3
 120 490 150 445 190 445 c 3
 236 445 260 491 260 540 c 3
 260 574 242 635 190 635 c 7
EndSplineSet
EndChar

StartChar: paragraph
Encoding: 182 182 113
Width: 550
VWidth: 0
Flags: W
HStem: 0 25<260 299.924 370.076 414.939 485.076 530> 625 35<370 413.963>
VStem: 20 350<318.797 541.115> 300 70<25.0001 260> 415 70<25.0001 625>
LayerCount: 2
Fore
SplineSet
485 650 m 25xd8
 485 45 l 18
 485 25 485 25 505 25 c 2
 520 25 l 2
 530 25 530 25 530 15 c 10
 530 0 l 25
 260 0 l 1
 260 15 l 2
 260 25 260 25 270 25 c 2
 280 25 l 2
 300 25 300 25 300 45 c 2
 300 260 l 1xd8
 279 243 240 220 200 220 c 3
 90 220 20 299 20 430 c 3xe8
 20 622 158.683 660 300 660 c 7
 424 660 412.85 653.9 485 650 c 25xd8
370 625 m 1
 370 45 l 2
 370 25 370 25 390 25 c 2
 395 25 l 2
 415.252 25 415 25 415 45 c 10
 415 605 l 18
 415 625 415 625 395 625 c 2
 370 625 l 1
EndSplineSet
Validated: 1
EndChar

StartChar: sterling
Encoding: 163 163 114
Width: 495
VWidth: 0
Flags: W
HStem: 0 30<10.0508 74.9895 145.016 439.984> 280 30<30 75 145 335> 635 25<221.855 351.466>
VStem: 75 70<30.0001 280 310 482.072> 440 30<30.0165 90 530 566.34 595.028 610>
LayerCount: 2
Fore
SplineSet
285 635 m 3
 165.996 635 145 561.005 145 310 c 1
 335 310 l 1
 335 280 l 1
 145 280 l 1
 145 50 l 2
 145 30 145 30 165 30 c 2
 420 30 l 2
 440 30 440 30 440 50 c 2
 440 80 l 2
 440 90 440 90 450 90 c 2
 470 90 l 1
 470 0 l 1
 10 0 l 1
 10 10 l 2
 10 19.998 10 30 20 30 c 2
 55 30 l 2
 75.252 30 75 30 75 50 c 2
 75 280 l 1
 30 280 l 1
 30 310 l 1
 75 310 l 1
 75 535.056 157.803 660 285 660 c 3
 391.118 660 418 609 435 595 c 1
 442.5 595.5 445 602.25 445 610 c 9
 470 610 l 25
 470 530 l 1
 445 530 l 1
 430 572 381.747 635 285 635 c 3
EndSplineSet
EndChar

StartChar: ampersand
Encoding: 38 38 116
Width: 490
VWidth: 0
Flags: W
HStem: -10 25<162.3 310.566 462.655 485> 635 25<203.724 305.216>
VStem: 5 70<83.6385 224.557> 65 70<396.982 574.277>
LayerCount: 2
Fore
SplineSet
355 530 m 3xd0
 355 559.411 339 635 255 635 c 3
 180.993 635 135 575 135 492 c 3xd0
 135 354 306 172 402 78 c 1
 436 103 466 134 485 167 c 1
 485 142 l 1
 471 109 448 81 422 59 c 1
 451 33 475 17 485 17 c 1
 485 -8 l 1
 463 -8 430 9 392 36 c 5
 343 4 298.007 -10 229 -10 c 3
 90.8223 -10 5 56.8685 5 152 c 3xe0
 5 234.024 85 293 121 313 c 1
 93 355 65 407 65 492 c 3
 65 591 142.995 660 255 660 c 3
 345 660 388 622 425 560 c 0
 355 530 l 3xd0
367 55 m 1
 293 111 205 183 140 282 c 1
 114 262 75 220.034 75 162 c 3xe0
 75 104.86 108.967 15 229 15 c 3
 295.008 15 324 30 367 55 c 1
EndSplineSet
EndChar

StartChar: ae
Encoding: 230 230 245
Width: 755
VWidth: 0
Flags: W
HStem: -10 25<155.297 247.627 494.949 616.767> 225 25<282.894 320> 230 25<410 625> 405 25<186.358 285.644 468.466 562.83>
VStem: 40 80<37.2305 145.218> 320 55<244.735 379.218> 320 42<68.5981 225 244.735 245.846> 330 79.988<105.419 230 255 334.369> 625 80<255 339.943>
LayerCount: 2
Fore
SplineSet
362 101 m 1xda80
 323.5 34 282.267 -10 180 -10 c 3
 77.3242 -10 40 23.6367 40 90 c 3
 40 194.367 219 222 320 250 c 1
 320 280 l 2
 320 316 317.007 405 250 405 c 3
 157.994 405 108.5 342 85 275 c 1
 65 340 l 1
 92 391 171 430 240 430 c 3
 367.004 430 356.105 362.686 375 370 c 1xdc80
 362 101 l 1xda80
320 225 m 5xda80
 203 189 120 174.002 120 100 c 7
 120 52.9971 144.464 15 200 15 c 7
 259.533 15 320 73 320 120 c 6
 320 225 l 5xda80
EndSplineSet
Refer: 29 101 N 1 0 0 1 290 0 2
EndChar

StartChar: oe
Encoding: 339 339 246
Width: 835
VWidth: 0
Flags: W
HStem: -10 25<207.267 301.71 557.992 691.831> 220 25<472.67 734.092> 405 25<196.3 297.978 551.285 660.514>
VStem: 40 70<115.16 315.433> 390 80<101.249 220 245 312.609> 734.092 60.908<245 325.104>
LayerCount: 2
Fore
SplineSet
250 -10 m 0
 140.498 -10 40 66.9961 40 210 c 0
 40 351.032 131.488 430 250 430 c 0
 325.945 430 392 400 429 338 c 1
 461 395 519.55 430 610 430 c 0
 679.507 430 794.5 380 795 220 c 1
 471.988 220 l 1
 470.621 206.755 470 208.286 470 195 c 0
 470 75.9834 540.5 15 610 15 c 0
 650.852 15 736.5 27 769 78 c 1
 785 60 l 1
 728 -10 649.747 -10 610 -10 c 0
 538.057 -10 470 26 432 89 c 1
 395 22 326.638 -10 250 -10 c 0
250 405 m 0
 173.679 405 110 340 110 210 c 0
 110 107 180.5 15 250 15 c 0
 319.5 15 390 76 390 210 c 0
 390 321.288 326.321 405 250 405 c 0
734.092 245 m 1
 730.5 358 672.508 405 610 405 c 0
 525.494 405 480.5 346 472.67 245 c 1
 734.092 245 l 1
EndSplineSet
Validated: 1
EndChar

StartChar: kgreenlandic
Encoding: 312 312 247
Width: 500
VWidth: 0
Flags: W
HStem: 0 25<10 74.9393 145.076 210 270 335.003 416.373 495> 395 25<10 74.9393 145.076 210 264 336.003 375.969 455>
VStem: 75 70<25.0001 140 170 395>
LayerCount: 2
Fore
SplineSet
75 375 m 6
 75 395 75.252 395 55 395 c 6
 20 395 l 6
 10 395 10 395 10 405 c 6
 10 420 l 5
 210 420 l 5
 210 405 l 6
 210 395 210 395 200 395 c 6
 165 395 l 6
 145 395 145 395 145 375 c 6
 145 170 l 1
 336 375 l 2
 345 385 336 395 323 395 c 2
 274 395 l 2
 264 395 264 395 264 405 c 2
 264 420 l 1
 455 420 l 1
 455 405 l 2
 455 395 455 395 445 395 c 2
 405 395 l 2
 390 395 376.972 385.022 368 375 c 2
 257 251 l 1
 410 45 l 2
 421.836 29.0635 430 25 450 25 c 2
 485 25 l 2
 495 25 495 25 495 15 c 2
 495 0 l 1
 270 0 l 1
 270 15 l 2
 270 25 270 25 280 25 c 2
 315 25 l 2
 335 25 346.474 28.8027 335 45 c 2
 216 213 l 1
 145 140 l 1
 145 45 l 2
 145 25 145 25 165 25 c 2
 200 25 l 2
 210 25 210 25 210 15 c 2
 210 0 l 1
 10 0 l 1
 10 15 l 2
 10 25 10 25 20 25 c 2
 55 25 l 2
 75.252 25 75 25 75 45 c 2
 75 375 l 6
EndSplineSet
Validated: 1
EndChar

StartChar: longs
Encoding: 383 383 248
Width: 260
VWidth: 0
Flags: W
HStem: 0 25<30 74.9392 145.076 190> 395 25<30 75> 715 25<174.572 270.366>
VStem: 75 70<25.0001 395 420 673.866>
LayerCount: 2
Fore
SplineSet
145 630 m 2
 145 45 l 2
 145 25 145 25 165 25 c 2
 180 25 l 2
 190 25 190 25 190 15 c 2
 190 0 l 1
 30 0 l 1
 30 15 l 2
 30 25 30 25 40 25 c 2
 55 25 l 2
 75.25 25.25 75 25 75 45 c 2
 75 395 l 1
 30 395 l 1
 30 420 l 1
 75 420 l 1
 75 570 l 2
 75 724.013 166.994 740 245 740 c 3
 297.334 740 332 717 345 696 c 1
 320 630 l 1
 303 679 274.345 715 230 715 c 3
 168.69 715 145 689 145 630 c 2
EndSplineSet
EndChar

StartChar: Eth
Encoding: 208 208 251
Width: 595
VWidth: 0
Flags: W
HStem: 0 25<60 124.939 195.076 333.303> 300 30<60 320> 625 25<60 124.924 195.928 322.597>
VStem: 125 70<25.0001 624.993> 485 80<186.56 449.187>
LayerCount: 2
Fore
SplineSet
60 330 m 1
 320 330 l 1
 320 300 l 5
 60 300 l 5
 60 330 l 1
EndSplineSet
Refer: 11 68 N 1 0 0 1 50 0 2
EndChar

StartChar: breve
Encoding: 728 728 264
Width: 380
VWidth: 0
Flags: W
HStem: 540 25<154.461 228.095> 640 20G<80 110 270 300>
VStem: 80 30<607.969 660> 270 30<606.514 660>
LayerCount: 2
Fore
SplineSet
110 660 m 3
 110 610 150 565 190 565 c 3
 236 565 270 611 270 660 c 0
 300 660 l 3
 300 630 280 540 190 540 c 3
 116 540 80 616 80 660 c 0
 110 660 l 3
EndSplineSet
Validated: 1
EndChar

StartChar: eng
Encoding: 331 331 277
Width: 495
VWidth: 0
Flags: W
HStem: -240 30<236.982 292.928> 0 25<10 74.9237 145.076 210> 380 25<35 65.8> 405 25<209.645 299.641>
VStem: 75 70<25.0001 360.19 373 380> 355 70<-138.242 367.936>
LayerCount: 2
Fore
SplineSet
355 310 m 2xdc
 355 382 279 405 255 405 c 3xdc
 221 405 145 369 145 310 c 2
 145 45 l 2
 145 25 145 25 165 25 c 2
 200 25 l 2
 210 25 210 25 210 15 c 2
 210 0 l 1
 10 0 l 1
 10 15 l 2
 10 25 10 25 20 25 c 2
 55 25 l 2
 75 25 75 25 75 45 c 2
 75 360 l 6
 75 380 75 380 55 380 c 6
 45 380 l 6
 35 380 35 380 35 390 c 6
 35 405 l 5xec
 145 430 l 5
 145 373 l 1
 149 395 213 430 255 430 c 3
 283 430 425 418.005 425 310 c 2
 425 -50 l 18
 425 -114 391 -240 190 -240 c 0
 210 -150 l 1
 216 -165 234.934 -210 265 -210 c 3
 339.169 -210 355 -156 355 -30 c 10
 355 310 l 2xdc
EndSplineSet
EndChar

StartChar: Eng
Encoding: 330 330 278
Width: 495
VWidth: 0
Flags: W
HStem: -240 30<236.982 292.928> 0 25<10 74.9237 145.076 210> 610 25<35 65.8> 635 25<209.645 299.641>
VStem: 75 70<25.0001 590.19 603 610> 355 70<-138.242 597.936>
LayerCount: 2
Fore
SplineSet
355 540 m 2xdc
 355 612 279 635 255 635 c 3xdc
 221 635 145 599 145 540 c 2
 145 45 l 2
 145 25 145 25 165 25 c 2
 200 25 l 2
 210 25 210 25 210 15 c 2
 210 0 l 1
 10 0 l 1
 10 15 l 2
 10 25 10 25 20 25 c 2
 55 25 l 2
 75 25 75 25 75 45 c 2
 75 590 l 6
 75 610 75 610 55 610 c 6
 45 610 l 6
 35 610 35 610 35 620 c 6
 35 635 l 5xec
 145 660 l 5
 145 603 l 1
 149 625 213 660 255 660 c 3
 283 660 425 648.005 425 540 c 2
 425 -50 l 18
 425 -114 391 -240 190 -240 c 0
 210 -150 l 1
 216 -165 234.934 -210 265 -210 c 3
 339.169 -210 355 -156 355 -30 c 10
 355 540 l 2xdc
EndSplineSet
EndChar

StartChar: Hbar
Encoding: 294 294 279
Width: 591
VWidth: 0
Flags: W
HStem: 0 25<10 74.9393 145.076 205 380 444.939 515.076 575> 325 30<145 445> 480 30<20 580> 625 25<15 74.9237 145.076 211 385 444.924 515.076 581>
VStem: 75 70<25.0001 325 355 625> 445 70<25.0001 325 355 625>
LayerCount: 2
Fore
SplineSet
20 510 m 5
 580 510 l 5
 580 480 l 5
 20 480 l 5
 20 510 l 5
EndSplineSet
Refer: 2 72 N 1 0 0 1 0 0 2
EndChar

StartChar: hbar
Encoding: 295 295 280
Width: 560
VWidth: 0
Flags: W
HStem: 0 25<10 74.9237 145.076 210 310 374.924 445.076 510> 405 25<217.826 338.821> 540 30<10 270> 690 25<35 65.8> 720 20<57 145>
VStem: 75 70<25.0001 356.452 373 690> 375 70<25.0001 378.03>
LayerCount: 2
Fore
SplineSet
10 570 m 5
 270 570 l 5
 270 540 l 5
 10 540 l 5
 10 570 l 5
EndSplineSet
Refer: 41 104 N 1 0 0 1 0 0 2
EndChar

StartChar: OE
Encoding: 338 338 303
Width: 760
VWidth: 0
Flags: W
HStem: 0 25<281.064 389.939 460.076 719.924> 330 25<460 639.924> 400 20G<645 665> 625 25<260.552 389.924 460.076 709.924>
VStem: 35 70<199.736 447.66> 390 70<25 330 355 625> 640 25<270 329.921 355.06 420> 710 25<565 624.924> 720 25<25.0763 85>
LayerCount: 2
Fore
SplineSet
345 0 m 2xfe80
 232.982 0 35 92 35 310 c 3
 35 533.002 174.974 650 345 650 c 2
 735 650 l 1
 735 565 l 1xff
 720 565 l 2xfe80
 710 565 710 565 710 575 c 2
 710 605 l 2xff
 710 625 710 625 690 625 c 2
 480 625 l 2
 460 625 460 625 460 605 c 2
 460 355 l 1
 620 354.999 l 2
 640 354.999 640 354.748 640 375 c 2
 640 410 l 2
 640 420 640 420 650 420 c 2
 665 420 l 1
 665 270 l 1
 650 270 l 2
 640 270 640 270 640 280 c 2
 640 310 l 2
 640 330 640.001 329.997 620.001 329.997 c 2
 460 330 l 1
 460 45 l 2
 460 25 460 25 480 25 c 2
 700 25 l 2
 720 25 720 25 720 45 c 2
 720 75 l 2
 720 85 720 85 730 85 c 2
 745 85 l 1
 745 0 l 1
 345 0 l 2xfe80
370 25 m 2
 390.25 25.25 390 25 390 45 c 2
 390 605 l 2
 390 625 390 625 370 625 c 2
 345 625 l 2
 186.921 625 105 534.02 105 310 c 3
 105 81.9978 268.993 25 345 25 c 2
 370 25 l 2
EndSplineSet
Validated: 1
EndChar

StartChar: uni0328
Encoding: 808 808 304
Width: 160
VWidth: 0
Flags: W
HStem: -175 180
VStem: 30 60<-108.167 -17.3177>
LayerCount: 2
Fore
SplineSet
130 -150 m 5
 130 -175 l 5
 70.667 -144.5 30 -97.501 30 -35 c 7
 30 -19.998 44.2393 5 70 5 c 7
 94.667 5 120 -16 120 -35 c 5
 107 -35 90 -51 90 -70 c 7
 90 -87 92.7725 -124.743 130 -150 c 5
EndSplineSet
Validated: 1
EndChar

StartChar: Tbar
Encoding: 358 358 313
Width: 535
VWidth: 0
Flags: W
HStem: 0 25<170 234.939 305.076 365> 300 30<135 405> 560 90<25 50 490 515> 620 30<50.0165 234.984 305.016 489.984>
VStem: 25 25<560 619.924> 235 70<25.0001 620> 490 25<560 619.924>
CounterMasks: 1 0e
LayerCount: 2
Fore
SplineSet
135 330 m 5xce
 405 330 l 5
 405 300 l 5
 135 300 l 5
 135 330 l 5xce
EndSplineSet
Refer: 5 84 N 1 0 0 1 0 0 2
EndChar

StartChar: tbar
Encoding: 359 359 314
Width: 365
VWidth: 0
Flags: W
HStem: -10 25<174.738 266.149> 260 30<30 270> 395 25<30 67.2353 140 285>
VStem: 70 70<43.816 395> 115 25<472.991 520>
LayerCount: 2
Fore
SplineSet
30 290 m 1xe0
 270 290 l 1
 270 260 l 5
 30 260 l 5
 30 290 l 1xe0
EndSplineSet
Refer: 46 116 N 1 0 0 1 0 0 2
EndChar

StartChar: dcroat
Encoding: 273 273 315
Width: 535
VWidth: 0
Flags: W
HStem: -10 25<195.085 310.979> 0 25<455.076 520> 405 25<192.966 311.277> 540 30<280 520> 690 25<345 375.8> 720 20<367 455>
VStem: 40 70<90.7535 298.326> 385 70<25 30 59.4592 361.799 380 690>
LayerCount: 2
Fore
SplineSet
280 570 m 1x3f
 520 570 l 1
 520 540 l 5
 280 540 l 5
 280 570 l 1x3f
EndSplineSet
Refer: 42 100 N 1 0 0 1 0 0 2
EndChar

StartChar: Lslash
Encoding: 321 321 318
Width: 475
VWidth: 0
Flags: HW
HStem: 0 25<10.0082 74.9393 145.076 424.924> 625 25<10 74.9237 145.076 210>
VStem: 75 70<25.0001 625> 425 25<25.0763 85>
LayerCount: 2
Fore
SplineSet
10 280 m 1
 270 400 l 1
 270 370 l 5
 10 250 l 5
 10 280 l 1
EndSplineSet
Refer: 7 76 N 1 0 0 1 0 0 2
EndChar

StartChar: lslash
Encoding: 322 322 319
Width: 290
VWidth: 0
Flags: W
HStem: 0 25<40 104.939 175.076 240> 690 25<65 95.8> 720 20<87 175>
VStem: 15 260 105 70<25.0001 690>
LayerCount: 2
Fore
SplineSet
15 280 m 1xf0
 275 400 l 1
 275 370 l 1
 15 250 l 1
 15 280 l 1xf0
EndSplineSet
Refer: 30 108 N 1 0 0 1 10 0 2
EndChar

StartChar: multiply
Encoding: 215 215 320
Width: 424
VWidth: 0
Flags: W
HStem: 45 330
VStem: 50 324
LayerCount: 2
Fore
SplineSet
71 45 m 25
 183 200 l 25
 50 375 l 25
 124 375 l 25
 218 246 l 17
 311 375 l 25
 343 375 l 25
 235 222 l 29
 374 45 l 25
 300 45 l 25
 199 180 l 17
 103 45 l 25
 71 45 l 25
EndSplineSet
EndChar

StartChar: yen
Encoding: 165 165 321
Width: 595
VWidth: 0
Flags: W
HStem: 0 25<195 259.924 330.076 390> 110 30<155 425> 200 30<155 425> 625 25<5 79.852 164.997 230 396 468.295 508.876 590>
VStem: 260 70<25.0001 283>
LayerCount: 2
Fore
SplineSet
155 140 m 5
 425 140 l 5
 425 110 l 5
 155 110 l 5
 155 140 l 5
155 230 m 5
 425 230 l 5
 425 200 l 5
 155 200 l 5
 155 230 l 5
EndSplineSet
Refer: 25 89 N 1 0 0 1 0 0 2
EndChar

StartChar: section
Encoding: 167 167 324
Width: 505
VWidth: 0
Flags: W
HStem: -240 25<177.57 325.162> 635 25<175.239 307.292>
VStem: 45 50<192.554 312.374 447.897 568.827> 405 50<-157.425 -18.3181 103.856 234.04> 405 25<530 553.091 595.028 610>
LayerCount: 2
Fore
SplineSet
156.127 350.241 m 1xf0
 131.791 330.093 95 300.553 95 260 c 3
 95 170.994 179.5 141 240 120 c 0
 306.5 99 455 81.083 455 -70 c 3
 455 -206.004 338.459 -240 250 -240 c 3
 162.994 -240 78 -221 45 -140 c 1
 105 -110 l 1
 105 -180 174.76 -215 250 -215 c 3
 298.042 -215 405 -202.018 405 -90 c 3
 405 23.04 300 29 240 50 c 0
 174 71 45 100.996 45 240 c 3
 45 305.573 87.291 350.001 137.336 376.944 c 1
 156.127 350.241 l 1xf0
344.37 67.6826 m 1
 367.933 86.3086 405 115.253 405 160 c 3xf0
 405 273.04 300 299 240 320 c 0
 174 341 45 350.996 45 490 c 3
 45 611 169 660 240 660 c 3
 346.118 660 378 609 395 595 c 1
 402.5 595.5 405 602.25 405 610 c 9
 430 610 l 25
 430 530 l 1
 405 530 l 1xe8
 390 572 336.747 635 240 635 c 3
 175.969 635 95 599.051 95 510 c 3
 95 420.994 179.5 411 240 390 c 0
 306.5 369 455 331.083 455 180 c 3
 455 110.886 419.739 68.1143 373.445 42.7607 c 1
 344.37 67.6826 l 1
EndSplineSet
EndChar

StartChar: logicalnot
Encoding: 172 172 325
Width: 430
VWidth: 0
Flags: W
HStem: 180 50<60 320>
VStem: 320 50<90 180>
LayerCount: 2
Fore
SplineSet
370 230 m 5
 370 90 l 5
 320 90 l 1
 320 180 l 1
 60 180 l 1
 60 230 l 1
 370 230 l 5
EndSplineSet
Validated: 1
EndChar

StartChar: currency
Encoding: 164 164 329
Width: 470
VWidth: 0
Flags: W
HStem: 80 40<163.643 294.337> 280 40<167.821 285.817>
VStem: 90 50<142.851 253.844> 310 50<141.849 252.853>
LayerCount: 2
Fore
SplineSet
220 280 m 3
 176 280 140 245 140 195 c 3
 140 145 180 120 220 120 c 3
 266 120 310 120 310 195 c 3
 310 260.031 272 280 220 280 c 3
133.858 286.092 m 1
 157.201 305.609 191.405 320 240 320 c 0
 283.122 320 311.717 304.473 330.135 283.467 c 1
 400 344 l 1
 430 309 l 1
 350.892 248.534 l 1
 357.501 231.309 360 213.89 360 200 c 0
 360 182.596 357.561 165.359 351.985 149.61 c 1
 430 89 l 1
 400 54 l 1
 330.092 112.999 l 1
 311.182 92.9521 282.181 80 240 80 c 0
 192.932 80 159.16 92.9561 135.729 111.266 c 1
 70 54 l 1
 40 89 l 1
 107.626 142.338 l 1
 95.124 162.247 90 183.4 90 200 c 0
 90 214.625 95.0361 235.768 107.845 256.244 c 1
 40 309 l 5
 70 344 l 1
 133.858 286.092 l 1
EndSplineSet
EndChar

StartChar: uni00B5
Encoding: 181 181 330
Width: 475
VWidth: 0
Flags: HW
HStem: -230 21G<70 140> -10 25<190.861 290.573> 0 25<400.076 465> 370 25<30 60.8 290 320.8> 400 20G<52 140 312 400>
VStem: 70 70<-230 9.26395 54.498 370> 330 70<25 30 39.8009 370>
LayerCount: 2
Fore
SplineSet
70 -230 m 25xde
 70 350 l 2
 70 370 70 370 50 370 c 2
 40 370 l 2
 30 370 30 370 30 380 c 2
 30 395 l 1
 140 420 l 1
 140 160 l 2
 140 91 153.494 15 240 15 c 3xde
 287 15 330 46 330 90 c 6
 330 350 l 2
 330 370 330 370 310 370 c 2
 300 370 l 2
 290 370 290 370 290 380 c 2
 290 395 l 1
 400 420 l 1
 400 45 l 2
 400 25 400 25 420 25 c 2
 455 25 l 2xbe
 465 25 465 25 465 15 c 2xde
 465 0 l 1
 330 0 l 1xbe
 330 30 l 1
 317 8 280 -10 240 -10 c 3
 196.804 -10 164.329 -2.72493 140 9.26394 c 1
 140 -230 l 25
 70 -230 l 25xde
EndSplineSet
Validated: 1
EndChar

StartChar: uni00B5
Encoding: 181 181 331
Width: 475
VWidth: 0
Flags: W
HStem: -230 21G<70 140> -10 25<189.844 289.075> 0 25<400.076 465> 370 25<30 60.8 290 320.8> 400 20G<52 140 312 400>
VStem: 70 70<-230 9.26395 54.0914 370> 330 70<25 30 40.8069 370>
LayerCount: 2
Fore
SplineSet
70 -230 m 25xde
 70 350 l 2
 70 370 70 370 50 370 c 2
 40 370 l 2
 30 370 30 370 30 380 c 2
 30 395 l 1
 140 420 l 1
 140 160 l 2
 140 91 153.494 15 240 15 c 3xde
 287 15 330 45 330 90 c 2
 330 350 l 2
 330 370 330 370 310 370 c 2
 300 370 l 2
 290 370 290 370 290 380 c 2
 290 395 l 1
 400 420 l 1
 400 45 l 2
 400 25 400 25 420 25 c 2
 455 25 l 2xbe
 465 25 465 25 465 15 c 2xde
 465 0 l 1
 330 0 l 1xbe
 330 30 l 1
 317 8 280 -10 240 -10 c 3
 196.804 -10 164.329 -2.72493 140 9.26394 c 1
 140 -230 l 25
 70 -230 l 25xde
EndSplineSet
Validated: 1
EndChar

StartChar: uni030C
Encoding: 780 780 332
Width: 370
VWidth: 0
Flags: W
HStem: 520 145
VStem: 30 310
LayerCount: 2
Fore
SplineSet
185 520 m 5
 30 650 l 5
 40 665 l 5
 185 579.069 l 5
 330 665 l 5
 340 650 l 5
 185 520 l 5
EndSplineSet
EndChar

StartChar: ordmasculine
Encoding: 186 186 334
Width: 380
VWidth: 0
Flags: W
HStem: 320 30<70 310> 420 25<156.736 225.556> 635 25<154.808 223.63>
VStem: 70 50<472.041 609.818> 70 240<320 350> 260 50<469.585 609.389>
LayerCount: 2
Fore
SplineSet
70 350 m 1xe8
 310 350 l 1
 310 320 l 1
 70 320 l 1
 70 350 l 1xe8
EndSplineSet
Refer: 111 176 N 1 0 0 1 0 0 2
EndChar

StartChar: Thorn
Encoding: 222 222 335
Width: 420
VWidth: 0
Flags: W
HStem: 0 25<10 74.9393 145.076 205> 130 25<145 239.067> 485 25<145 234.748> 625 25<15 74.9237 145.076 211>
VStem: 75 70<25.0001 130 155 485 510 625> 335 70<225.318 411.052>
LayerCount: 2
Fore
SplineSet
75 605 m 2
 75 625 75 625 55 625 c 2
 25 625 l 2
 15 625 15 625 15 635 c 2
 15 650 l 1
 211 650 l 1
 211 635 l 2
 211 625 211 625 201 625 c 2
 165 625 l 2
 145 625 145 625 145 605 c 2
 145 510 l 1
 261.501 510 405 487 405 320 c 0
 405 152 258.501 130 145 130 c 1
 145 45 l 2
 145 25 145 25 165 25 c 2
 195 25 l 2
 205 25 205 25 205 15 c 2
 205 0 l 1
 10 0 l 1
 10 15 l 2
 10 25 10 25 20 25 c 2
 55 25 l 2
 75.252 25 75 25 75 45 c 2
 75 605 l 2
145 485 m 1
 145 155 l 1
 214.5 155 335 159 335 320 c 0
 335 467 221.321 485 145 485 c 1
EndSplineSet
Validated: 1
EndChar

StartChar: thorn
Encoding: 254 254 336
Width: 490
VWidth: 0
Flags: W
HStem: -230 25<5 69.9572 140.076 205> -10 25<191.815 297.043> 405 25<205.454 296.192> 680 25<30 60.8> 710 20G<52 140>
VStem: 70 70<-205 35 50.7703 351.777 360 680> 380 70<96.5504 318.68>
LayerCount: 2
Fore
SplineSet
140 35 m 1
 140 -185 l 18
 140 -205 140 -205 160 -205 c 2
 195 -205 l 2
 205 -205 205 -205 205 -215 c 10
 205 -230 l 25
 5 -230 l 25
 5 -215 l 18
 5 -205 5 -205 15 -205 c 2
 50 -205 l 2
 70.252 -205 70 -206 70 -185 c 2
 70 660 l 2
 70 680 70 680 50 680 c 2
 40 680 l 2
 30 680 30 680 30 690 c 2
 30 705 l 1
 140 730 l 1
 140 360 l 1
 152 407 219.85 430 250 430 c 3
 331.024 430 450 381.012 450 210 c 3
 450 32.9551 339.02 -10 240 -10 c 3
 193 -10 162 11 140 35 c 1
140 295 m 2
 140 100 l 2
 140 53 193 15 240 15 c 3
 351.005 15 380 120.978 380 210 c 3
 380 313 342.044 405 240 405 c 3
 200.949 405 140 345 140 295 c 2
EndSplineSet
Validated: 1
EndChar

StartChar: uni00B9
Encoding: 185 185 337
Width: 220
VWidth: 0
Flags: W
HStem: 430 25<30 89.9393 130.076 190> 640 20G<93.6364 130>
VStem: 90 40<455 600.938>
LayerCount: 2
Fore
SplineSet
130 475 m 18
 130 455 130 455 150 455 c 2
 180 455 l 2
 190 455 190 455 190 445 c 10
 190 430 l 25
 30 430 l 25
 30 445 l 18
 30 455 30 455 40 455 c 2
 70 455 l 2
 90.252 455 90 455 90 475 c 10
 90 582 l 18
 90 602 87.4004 611.86 70 602 c 2
 40 585 l 6
 31.3018 580.071 30 585 30 595 c 14
 30 605 l 29
 130 660 l 25
 130 475 l 18
EndSplineSet
EndChar

StartChar: uni00B2
Encoding: 178 178 338
Width: 220
VWidth: 0
Flags: W
HStem: 430 35<77.7191 190> 640 20<63.7244 124.311>
VStem: 140 45<559.961 634.84>
LayerCount: 2
Fore
SplineSet
100 660 m 3
 147.713 660 185 633.541 185 600 c 3
 185 557.988 75 485 75 485 c 2
 61.1738 470.545 70 465 90 465 c 2
 190 465 l 25
 190 430 l 25
 30 430 l 1
 30 455 l 2
 30 464.667 30.9932 469.812 35 475 c 1
 52 495 140 566.984 140 600 c 3
 140 617.507 123 640 100 640 c 3
 74.5 640 60 634 40 602 c 9
 30 632 l 17
 47 651 86.7617 660 100 660 c 3
EndSplineSet
EndChar

StartChar: uni00B3
Encoding: 179 179 339
Width: 220
VWidth: 0
Flags: W
HStem: 420 20<70.6321 136.205> 530 25<70 124.39> 640 20<65.229 131.382>
VStem: 140 40<567.344 636.604> 150 40<445.236 514>
LayerCount: 2
Fore
SplineSet
70 555 m 1xe8
 126 555 140 582.971 140 600 c 3
 140 625.08 132.004 640 100 640 c 3
 74.5 640 60 632 40 600 c 9
 30 630 l 17
 47 649 86.7617 660 100 660 c 3
 149.041 660 180 634.015 180 600 c 3xf0
 180 580.765 166 543 119 543 c 1
 180 543 190 504.026 190 485 c 3
 190 450.985 159.041 420 110 420 c 3
 67.9883 420 47 427 30 446 c 9
 50 470 l 17
 61.5 449 86.2408 440 110 440 c 3
 140.504 440 150 465.494 150 485 c 3
 150 502.029 126 530 70 530 c 1
 70 555 l 1xe8
EndSplineSet
EndChar

StartChar: uni2074
Encoding: 8308 8308 343
Width: 215
VWidth: 0
Flags: W
HStem: 430 21G<120 160> 472 25<60 120 160 185> 630 20G<99.5425 160>
VStem: 120 40<430 472 497 618.45>
LayerCount: 2
Fore
SplineSet
120 497 m 25
 120 618.45 l 1
 60 497 l 25
 120 497 l 25
110 650 m 1
 160 650 l 5
 160 497 l 5
 185 497 l 1
 185 472 l 1
 160 472 l 5
 160 430 l 6
 120 430 l 2
 120 472 l 1
 30 472 l 1
 30 497 l 25
 110 650 l 1
EndSplineSet
EndChar

StartChar: eth
Encoding: 240 240 344
Width: 440
VWidth: 0
Flags: W
HStem: -10 25<171.191 258.451> 330 25<157.783 243.697> 635 25<150 184.866>
VStem: 40 70<84.2942 275.939> 330 70<141.788 418.357>
LayerCount: 2
Fore
SplineSet
140 480 m 1
 400 610 l 1
 400 580 l 1
 140 450 l 1
 140 480 l 1
295 300 m 9
 295 275 l 17
 261.847 313.623 227 330 200 330 c 3
 131.993 330 110 258.768 110 180 c 3
 110 142.996 126 15 210 15 c 3
 310.499 15 330 138.893 330 280 c 3
 330 473.041 228 635 150 635 c 0
 150 660 l 0
 252 660 400 491.009 400 280 c 3
 400 111 318.005 -10 210 -10 c 3
 119.95 -10 40 64.9785 40 180 c 3
 40 279.016 93.8311 355 200 355 c 3
 234 355 267.015 339.767 295 300 c 9
EndSplineSet
Validated: 5
EndChar

StartChar: germandbls
Encoding: 223 223 345
Width: 505
VWidth: 0
Flags: W
HStem: -10 25<289.001 365.655> 0 25<20 64.9392 135.076 180> 390 24.999<210 276.433> 715 25<179.498 293.032>
VStem: 65 70<25.0001 665.8> 350 70<502.118 664.102> 420 70<80.8064 277.208>
LayerCount: 2
Fore
SplineSet
330 15 m 3xba
 384.009 15 420 78.9951 420 180 c 7xba
 420 325.086 307.25 390 210 390 c 9
 210 414.999 l 17
 280 414.999 350 483 350 580 c 3
 350 676.083 304.008 715 240 715 c 3
 181.69 715 135 689 135 630 c 2
 135 45 l 2
 135 25 135 25 155 25 c 2
 170 25 l 2x7c
 180 25 180 25 180 15 c 2xbc
 180 0 l 1
 20 0 l 1x7c
 20 15 l 2xbc
 20 25 20 25 30 25 c 2
 45 25 l 2
 65.25 25.25 65 25 65 45 c 2
 65 570 l 2
 65 724.013 175.994 740 255 740 c 3
 334 740 420 692.04 420 580 c 3x7c
 420 487 332 405 260 405 c 1
 384 405 490 323.003 490 180 c 7
 490 56.9961 413 -10 330 -10 c 3
 271.481 -10 218 9 185 90 c 1
 245 120 l 1
 245 50 287.997 15 330 15 c 3xba
EndSplineSet
EndChar

StartChar: AE
Encoding: 198 198 346
Width: 715
VWidth: 0
Flags: W
HStem: 0 25<5 78.0775 108.833 171 285 345.001 415.445 674.555> 270 30<213 345> 325 30<415 594.984> 400 20G<600 620> 620 30<415.016 664.984>
VStem: 345 70<30.1335 270 300 325 355 620> 595 25<265 324.921 355.06 420> 665 25<560 619.924> 675 25<30.0763 90>
LayerCount: 2
Fore
SplineSet
285 0 m 9xfe80
 285 15 l 18
 285 25 285 25 295 25 c 2
 330 25 l 2
 342 25 350 28 345 45 c 9
 345 270 l 25
 203 270 l 17
 109 45 l 1
 105.333 32.667 109 25 122 25 c 2
 161 25 l 2
 171 25 171 25 171 15 c 10
 171 0 l 25
 5 0 l 25
 5 15 l 18
 5 25 5 25 15 25 c 2
 55 25 l 2
 70 25 77 33 82 45 c 1
 320 630 l 2
 326 644.999 375 650 415 650 c 1
 690 650 l 1
 690 560 l 1xff
 675 560 l 2xfe80
 665 560 665 560 665 570 c 2
 665 600 l 2xff
 665 620 665 620 645 620 c 2
 435 620 l 2
 415 620 415 620 415 600 c 2
 415 355 l 1
 575 354.999 l 2
 595 354.999 595 354.748 595 375 c 2
 595 410 l 2
 595 420 595 420 605 420 c 2
 620 420 l 1
 620 265 l 1
 605 265 l 2
 595 265 595 265 595 275 c 2
 595 305 l 2
 595 325 595.001 324.997 575.001 324.997 c 2
 415 325 l 1
 415 50 l 2
 415 30 415 30 435 30 c 2
 655 30 l 2
 675 30 675 30 675 50 c 2
 675 80 l 2
 675 90 675 90 685 90 c 2
 700 90 l 1
 700 0 l 1
 285 0 l 9xfe80
345 620 m 25
 213 300 l 25
 345 300 l 25
 345 620 l 25
EndSplineSet
EndChar

StartChar: ordfeminine
Encoding: 170 170 347
Width: 380
VWidth: 0
Flags: W
HStem: 320 30<70 310> 420 25<130.94 205.308> 430 21G<245 295> 545 25<184.832 245> 635 25<146.083 230.07>
VStem: 75 50<447.318 518.551> 245 50<430 460 469.858 545 566.949 626.772>
LayerCount: 2
Fore
SplineSet
245 430 m 5xbe
 245 460 l 5
 232 438 211 420 165 420 c 3xde
 126.36 420 75 430.991 75 490 c 3
 75 534.045 142 554 245 570 c 5
 245 590 l 6
 245 615 226 635 195 635 c 3
 150.954 635 131 620 115 575 c 1
 75 605 l 1
 97 641 152.952 660 195 660 c 3
 256.074 660 295 633 295 590 c 6
 295 430 l 29
 245 430 l 5xbe
245 545 m 5
 139.5 528 125 512.389 125 480 c 3
 125 450.931 142 445 165 445 c 3
 198.241 445 245 477 245 510 c 6
 245 545 l 5
70 350 m 1
 310 350 l 1
 310 320 l 1
 70 320 l 1
 70 350 l 1
EndSplineSet
EndChar

StartChar: registered
Encoding: 174 174 348
Width: 670
VWidth: 0
Flags: W
HStem: -10 25<268.205 405.298> 130 35<481.734 505> 140 25<190 234.939 295.076 355> 320 25<295 351.473> 505 25<190 234.924 295.076 378.985> 635 25<250.575 410.502>
VStem: 15 50<198.814 444.88> 235 60<165 320 345 505> 405 60<362.939 488.485> 605 50<193.963 437.505>
LayerCount: 2
Fore
SplineSet
315.004 344.999 m 2x9fc0
 378.501 344.999 405 368.499 405 420 c 3
 405 457.084 405 505 325 505 c 2
 315 505 l 2
 295 505 295 505 295 485 c 2
 295 345 l 1
 315.004 344.999 l 2x9fc0
505 130 m 17xdfc0
 370 130 416.501 319.982 315.001 319.997 c 2
 295 320 l 1
 295 185 l 2
 295 165 295 165 315 165 c 2
 330 165 l 2
 345 165 l 2
 355 165 355 164.998 355 155 c 2
 355 140 l 1
 190 140 l 1
 190 155 l 2
 190 164.998 190 165 200 165 c 2
 215 165 l 2
 235.252 165 235 165 235 185 c 2
 235 485 l 2
 235 505 235 505 215 505 c 2
 200 505 l 2
 190 505 190 505 190 515 c 2
 190 530 l 1
 355 530 l 2
 413 530 465 505.002 465 420 c 3
 465 354.992 412 330 375 325 c 1
 464 319 429 165 525 165 c 9xbfc0
 505 130 l 17xdfc0
335 15 m 3
 423 15 605 86 605 310 c 3
 605 527 467.004 635 335 635 c 3
 176.921 635 65 534.02 65 310 c 3
 65 81.998 258.993 15 335 15 c 3
335 -10 m 3
 222.982 -10 15 92 15 310 c 3
 15 533.002 164.974 660 335 660 c 3
 503.027 660 655 523.021 655 310 c 3
 655 82.998 450.018 -10 335 -10 c 3
EndSplineSet
Validated: 1
EndChar

StartChar: copyright
Encoding: 169 169 349
Width: 670
VWidth: 0
Flags: W
HStem: -10 25<268.205 405.298> 140 25<307.773 390.496> 505 25<298.381 390.159> 635 25<250.575 410.502>
VStem: 15 50<198.814 444.88> 180 70<231.165 443.592> 605 50<193.963 437.505>
LayerCount: 2
Fore
SplineSet
430 440 m 1
 421 485 383.64 505 330 505 c 3
 282.332 505 250 439.225 250 330 c 3
 250 238.862 290.997 165 340 165 c 3
 380.852 165 422 181 435 250 c 1
 485 220 l 1
 463.5 163 379.747 140 340 140 c 3
 238.495 140 180 232.896 180 330 c 3
 180 445.01 231.495 530 330 530 c 3
 380.09 530 455.5 519 480 465 c 1
 430 440 l 1
335 15 m 3
 423 15 605 86 605 310 c 3
 605 527 467.004 635 335 635 c 3
 176.921 635 65 534.02 65 310 c 3
 65 81.998 258.993 15 335 15 c 3
335 -10 m 3
 222.982 -10 15 92 15 310 c 3
 15 533.002 164.974 660 335 660 c 3
 503.027 660 655 523.021 655 310 c 3
 655 82.998 450.018 -10 335 -10 c 3
EndSplineSet
Validated: 1
EndChar

StartChar: uniF643
Encoding: 63043 63043 350
Width: 480
VWidth: 0
Flags: W
HStem: -10 25<184.693 296.901> 405 25<183.306 297.84>
VStem: 40 70<101.998 311.396> 370 70<103.765 315.705>
LayerCount: 2
Fore
SplineSet
240 15 m 3
 328 15 370 74 370 210 c 3
 370 318 343.697 405 240 405 c 3
 136.98 405 110 320 110 210 c 3
 110 70 163.993 15 240 15 c 3
240 -10 m 3
 127.982 -10 40 69 40 210 c 3
 40 322 110.965 430 240 430 c 3
 375.093 430 440 324 440 210 c 3
 440 73 355.018 -10 240 -10 c 3
EndSplineSet
Validated: 1
EndChar

StartChar: uniF644
Encoding: 63044 63044 351
Width: 440
VWidth: 0
Flags: W
HStem: 0 25<40 184.939 255.076 400> 410 20G<207.222 255>
VStem: 185 70<25.0001 356.344>
LayerCount: 2
Fore
SplineSet
255 45 m 18
 255 25 255 25 275 25 c 2
 390 25 l 2
 400 25 400 25 400 15 c 10
 400 0 l 25
 40 0 l 25
 40 15 l 18
 40 25 40 25 50 25 c 2
 165 25 l 2
 185.252 25 185 25 185 45 c 10
 185 337 l 18
 185 357 183.785 363.86 165 357 c 2
 50 315 l 2
 40.7686 318.854 40 315 40 325 c 10
 40 340 l 25
 255 430 l 25
 255 45 l 18
EndSplineSet
EndChar

StartChar: uniF645
Encoding: 63045 63045 352
Width: 440
VWidth: 0
Flags: W
HStem: 0 80<40 97.6927> 0 30<108.912 374.984> 405 25<151.358 267.555>
VStem: 315 70<221.801 362.999> 375 25<30.0763 120>
LayerCount: 2
Fore
SplineSet
205 430 m 3xb0
 330 430 385 372.501 385 280 c 3xb0
 385 135.499 110 50 110 50 c 6
 86.127 32.6377 105 30 125 30 c 6
 355 30 l 2
 375.001 30 375 30 375 50 c 2
 375 110 l 2x68
 375 120 375 120 385 120 c 2x70
 400 120 l 1
 400 0 l 1x68
 40 0 l 1
 40 60 l 2
 40 69.667 40.9932 74.8135 45 80 c 1
 106.5 94.5 315 167.446 315 280 c 3
 315 365.006 280.192 405 215 405 c 3
 122.994 405 73.5 342 50 275 c 1
 30 340 l 1
 57 391 136 430 205 430 c 3xb0
EndSplineSet
EndChar

StartChar: uniF647
Encoding: 63047 63047 354
Width: 440
VWidth: 0
Flags: W
HStem: -230 25<200 264.939 335.076 400> 0 25<84.7749 265 335 410> 400 20G<252.733 335>
VStem: 265 70<-205 0 25 338.45>
LayerCount: 2
Fore
SplineSet
265 338.45 m 1
 85 45 l 6
 80.0908 35.4141 82 25 100 25 c 6
 265 25 l 1
 265 338.45 l 1
265 0 m 1
 30 0 l 1
 30 25 l 2
 30 33.5 30.7246 36.5859 35 45 c 2
 265 420 l 1
 335 420 l 1
 335 25 l 1
 410 25 l 1
 410 0 l 1
 335 0 l 1
 335 -185 l 2
 335 -205 335 -205 355 -205 c 2
 390 -205 l 2
 400 -205 400 -205 400 -215 c 2
 400 -230 l 1
 200 -230 l 1
 200 -215 l 2
 200 -205 200 -205 210 -205 c 2
 245 -205 l 2
 265.252 -205 265 -205 265 -185 c 2
 265 0 l 1
EndSplineSet
EndChar

StartChar: uniF649
Encoding: 63049 63049 356
Width: 490
VWidth: 0
Flags: W
HStem: -10 25<196.461 299.057> 345 25<207.731 301.018> 635 25<306.884 380>
VStem: 40 70<141.788 410.019> 360 70<89.1236 286.253>
LayerCount: 2
Fore
SplineSet
145 280 m 21
 149.5 307.5 176.952 370 270 370 c 3
 339.007 370 430 323.034 430 190 c 3
 430 74.9785 359.041 -10 250 -10 c 3
 118.966 -10 40 111 40 280 c 3
 40 491.009 203.997 660 380 660 c 0
 380 635 l 3
 209.988 635 110 473.041 110 280 c 3
 110 138.893 136.783 15 250 15 c 3
 334 15 360 95.9521 360 190 c 3
 360 268.768 328.007 345 260 345 c 3
 195.93 345 163.5 304 145 255 c 9
 145 280 l 21
EndSplineSet
Validated: 1
EndChar

StartChar: uniFB00
Encoding: 64256 64256 360
Width: 530
VWidth: 0
Flags: W
HStem: 0 25<30 74.9392 145.076 190 280 324.939 395.076 440> 395 25<30 75 145 325 395 515> 695 25<189.498 298.881> 715 25<439.212 540.366>
VStem: 75 70<25.0001 395 420 645.8> 325 70<25.0001 395 420 646.002>
LayerCount: 2
Fore
SplineSet
515 740 m 3xdc
 567.334 740 602 717 615 696 c 1
 590 630 l 1
 573 679 544.345 715 500 715 c 3xdc
 440.69 715 395 689 395 630 c 2
 395 420 l 1
 515 420 l 1
 515 395 l 1
 395 395 l 1
 395 45 l 2
 395 25 395 25 415 25 c 2
 430 25 l 2
 440 25 440 25 440 15 c 2
 440 0 l 1
 280 0 l 1
 280 15 l 2
 280 25 280 25 290 25 c 2
 305 25 l 2
 325.25 25.25 325 25 325 45 c 2
 325 395 l 1
 145 395 l 1
 145 45 l 2
 145 25 145 25 165 25 c 2
 180 25 l 2
 190 25 190 25 190 15 c 2
 190 0 l 1
 30 0 l 1
 30 15 l 2
 30 25 30 25 40 25 c 2
 55 25 l 2
 75.25 25.25 75 25 75 45 c 2
 75 395 l 1
 30 395 l 1
 30 420 l 1
 75 420 l 1
 75 550 l 2
 75 704.013 185.994 720 265 720 c 3xec
 283.36 720 331.387 720.43 370.739 697.89 c 1
 410.266 734.399 467.237 740 515 740 c 3xdc
337.234 646.979 m 1
 313.921 687.334 269.184 695 250 695 c 3xec
 191.69 695 145 669 145 610 c 2
 145 420 l 1
 325 420 l 1
 325 570 l 2
 325 600.881 329.462 626.212 337.234 646.979 c 1
EndSplineSet
LCarets2: 1 0 
Ligature2: "liga" f f
EndChar

StartChar: uniFB01
Encoding: 64257 64257 361
Width: 500
VWidth: 0
Flags: W
HStem: 0 25<30 74.9391 145.076 190 285 349.939 420.076 480> 395 25<30 75 145 340.8> 715 25<189.498 299.037>
VStem: 75 70<25.0001 395 420 665.8> 350 70<25.0001 395>
LayerCount: 2
Fore
SplineSet
310 420 m 9
 420 445 l 25
 420 45 l 18
 420 25 420 25 440 25 c 2
 470 25 l 2
 480 25 480 25 480 15 c 10
 480 0 l 25
 285 0 l 25
 285 15 l 18
 285 25 285 25 295 25 c 2
 330 25 l 2
 350.252 25 350 25 350 45 c 10
 350 375 l 18
 350 395 350 395 330 395 c 2
 145 395 l 1
 145 45 l 2
 145 25 145 25 165 25 c 2
 180 25 l 2
 190 25 190 25 190 15 c 2
 190 0 l 1
 30 0 l 1
 30 15 l 2
 30 25 30 25 40 25 c 2
 55 25 l 2
 75.25 25.25 75 25 75 45 c 2
 75 395 l 1
 30 395 l 1
 30 420 l 1
 75 420 l 1
 75 570 l 2
 75 724.013 185.994 740 265 740 c 3
 293 740 390 731 420 650 c 0
 440 592 358 578 350 630 c 0
 338 703 274 715 250 715 c 3
 191.69 715 145 689 145 630 c 2
 145 420 l 1
 310 420 l 9
EndSplineSet
LCarets2: 1 0 
Ligature2: "liga" f i
EndChar

StartChar: uniFB02
Encoding: 64258 64258 362
Width: 520
VWidth: 0
Flags: W
HStem: 0 25<30 74.9391 145.076 190 300 364.939 435.076 500> 395 25<30 75 145 265> 715 25<189.498 325.528>
VStem: 75 70<25.0001 395 420 665.8> 365 70<25.0001 694.741>
LayerCount: 2
Fore
SplineSet
435 730 m 13
 435 45 l 22
 435 25 435 25 455 25 c 6
 490 25 l 6
 500 25 500 25 500 15 c 14
 500 0 l 29
 300 0 l 29
 300 15 l 22
 300 25 300 25 310 25 c 6
 345 25 l 6
 365.252 25 365 25 365 45 c 14
 365 680 l 21
 331 711 274 715 250 715 c 7
 191.69 715 145 689 145 630 c 2
 145 420 l 1
 265 420 l 1
 265 395 l 1
 145 395 l 1
 145 45 l 2
 145 25 145 25 165 25 c 2
 180 25 l 2
 190 25 190 25 190 15 c 2
 190 0 l 1
 30 0 l 1
 30 15 l 2
 30 25 30 25 40 25 c 2
 55 25 l 2
 75.25 25.25 75 25 75 45 c 2
 75 395 l 1
 30 395 l 1
 30 420 l 1
 75 420 l 1
 75 570 l 2
 75 724.013 185.994 740 265 740 c 7
 293 740 400 740 435 730 c 13
EndSplineSet
LCarets2: 1 0 
Ligature2: "liga" f l
EndChar

StartChar: uniFB04
Encoding: 64260 64260 363
Width: 770
VWidth: 0
Flags: W
HStem: 0 25<30 74.9391 145.076 190 280 324.939 395.076 440 550 614.939 685.076 750> 395 25<30 75 145 325 395 515> 695 25<189.498 298.881> 715 25<440.022 575.528>
VStem: 75 70<25.0001 395 420 645.8> 325 70<25.0001 395 420 646.002> 615 70<25.0001 694.741>
LayerCount: 2
Fore
SplineSet
500 715 m 3xde
 442.69 715 395 689 395 630 c 2
 395 420 l 1
 515 420 l 1
 515 395 l 1
 395 395 l 1
 395 45 l 2
 395 25 395 25 415 25 c 2
 430 25 l 2
 440 25 440 25 440 15 c 2
 440 0 l 1
 280 0 l 1
 280 15 l 2
 280 25 280 25 290 25 c 2
 305 25 l 2
 325.25 25.25 325 25 325 45 c 2
 325 395 l 1
 145 395 l 1
 145 45 l 2
 145 25 145 25 165 25 c 2
 180 25 l 2
 190 25 190 25 190 15 c 2
 190 0 l 1
 30 0 l 1
 30 15 l 2
 30 25 30 25 40 25 c 2
 55 25 l 2
 75.25 25.25 75 25 75 45 c 2
 75 395 l 1
 30 395 l 1
 30 420 l 1
 75 420 l 1
 75 550 l 2
 75 704.013 185.994 720 265 720 c 3xee
 283.36 720 331.387 720.43 370.739 697.89 c 1
 410.266 734.399 469.236 740 515 740 c 3
 543 740 650 740 685 730 c 9
 685 45 l 18
 685 25 685 25 705 25 c 2
 740 25 l 2
 750 25 750 25 750 15 c 10
 750 0 l 25
 550 0 l 25
 550 15 l 18
 550 25 550 25 560 25 c 2
 595 25 l 2
 615.252 25 615 25 615 45 c 10
 615 680 l 17
 581 711 524 715 500 715 c 3xde
337.234 646.979 m 1
 313.921 687.334 269.184 695 250 695 c 3
 191.69 695 145 669 145 610 c 2
 145 420 l 1
 325 420 l 1
 325 570 l 2
 325 600.881 329.462 626.212 337.234 646.979 c 1
EndSplineSet
LCarets2: 2 0 0 
Ligature2: "liga" f f l
EndChar

StartChar: uniFB03
Encoding: 64259 64259 364
Width: 750
VWidth: 0
Flags: W
HStem: 0 25<30 74.9391 145.076 190 280 324.939 395.076 440 535 599.939 670.076 730> 395 25<30 75 145 325 395 590.8> 695 25<189.498 298.881> 715 25<440.022 549.037>
VStem: 75 70<25.0001 395 420 645.8> 325 70<25.0001 395 420 646.002> 600 70<25.0001 395>
LayerCount: 2
Fore
SplineSet
395 395 m 1xde
 395 45 l 2
 395 25 395 25 415 25 c 2
 430 25 l 2
 440 25 440 25 440 15 c 2
 440 0 l 1
 280 0 l 1
 280 15 l 2
 280 25 280 25 290 25 c 2
 305 25 l 2
 325.25 25.25 325 25 325 45 c 2
 325 395 l 1
 145 395 l 1
 145 45 l 2
 145 25 145 25 165 25 c 2
 180 25 l 2
 190 25 190 25 190 15 c 2
 190 0 l 1
 30 0 l 1
 30 15 l 2
 30 25 30 25 40 25 c 2
 55 25 l 2
 75.25 25.25 75 25 75 45 c 2
 75 395 l 1
 30 395 l 1
 30 420 l 1
 75 420 l 1
 75 550 l 2
 75 704.013 185.994 720 265 720 c 0xee
 283.36 720 331.387 720.43 370.739 697.89 c 1
 410.266 734.399 469.236 740 515 740 c 3
 543 740 640 731 670 650 c 0
 690 592 608 578 600 630 c 0
 588 703 524 715 500 715 c 3
 442.69 715 395 689 395 630 c 2
 395 420 l 1
 560 420 l 9
 670 445 l 25
 670 45 l 18
 670 25 670 25 690 25 c 2
 720 25 l 2
 730 25 730 25 730 15 c 10
 730 0 l 25
 535 0 l 25
 535 15 l 18
 535 25 535 25 545 25 c 2
 580 25 l 2
 600.252 25 600 25 600 45 c 10
 600 375 l 18
 600 395 600 395 580 395 c 2
 395 395 l 1xde
337.234 646.979 m 1
 313.921 687.334 269.184 695 250 695 c 0
 191.69 695 145 669 145 610 c 2
 145 420 l 1
 325 420 l 1
 325 570 l 2
 325 600.881 329.462 626.212 337.234 646.979 c 1
EndSplineSet
LCarets2: 2 0 0 
Ligature2: "liga" f f i
EndChar

StartChar: Euro
Encoding: 8364 8364 365
Width: 595
VWidth: 0
Flags: W
HStem: -10 25<297.561 449.065> 230 50<40 330> 360 50<40 390> 635 25<298.227 437.458>
VStem: 90 85<173.626 435.38> 550 25<530 550.905 595.028 610>
LayerCount: 2
Fore
SplineSet
350 280 m 1
 330 230 l 1
 20 230 l 1
 40 280 l 1
 350 280 l 1
20 360 m 1
 40 410 l 1
 410 410 l 1
 390 360 l 1
 20 360 l 1
EndSplineSet
Refer: 17 67 N 1 0 0 1 60 0 2
EndChar

StartChar: uni2010
Encoding: 8208 8208 367
Width: 410
VWidth: 0
Flags: W
HStem: 200 50<70 340>
VStem: 70 270<200 250>
LayerCount: 2
Fore
SplineSet
70 250 m 1
 340 250 l 1
 340 200 l 1
 70 200 l 1
 70 250 l 1
EndSplineSet
EndChar

StartChar: fraction
Encoding: 8260 8260 369
Width: 515
VWidth: 0
Flags: W
LayerCount: 2
Fore
SplineSet
440 630 m 29
 120 20 l 29
 75 20 l 5
 395 630 l 29
 440 630 l 29
EndSplineSet
EndChar

StartChar: uni2075
Encoding: 8309 8309 370
Width: 220
VWidth: 0
Flags: W
HStem: 420 20<70.6321 136.205> 545 20<55.6545 130.322> 610 40<55 170>
VStem: 35 20<560 610> 150 40<445.236 536.037>
LayerCount: 2
Fore
SplineSet
190 485 m 7
 190 450.985 159.041 420 110 420 c 7
 67.9883 420 47 427 30 446 c 9
 50 470 l 17
 61.5 449 86.2408 440 110 440 c 7
 140.504 440 150 465.494 150 485 c 7
 150 525.797 130.235 545 100 545 c 3
 77 545 64.5879 542.431 35 535 c 0
 35 650 l 1
 170 650 l 1
 170 610 l 9
 55 610 l 25
 55 560 l 17
 73.0273 563.449 93 565 110 565 c 3
 159.107 565 190 539.974 190 485 c 7
EndSplineSet
EndChar

StartChar: uni2076
Encoding: 8310 8310 371
Width: 220
VWidth: 0
Flags: W
HStem: 420 20<89.6919 136.205> 535 20<89.4707 137.091> 640 20<119.828 170>
VStem: 65 5<495.896 535.5> 150 40<445.111 532.126>
LayerCount: 2
Fore
SplineSet
30 520 m 3
 30 629.529 95.5 660 170 660 c 9
 170 640 l 17
 99.5 640 70 604.501 70 520 c 3
 70 463.498 89.7001 440 110 440 c 3
 140.504 440 150 465.494 150 485 c 3
 150 507 139.525 535 120 535 c 3
 104.492 535 74.5 523.5 65 495 c 9
 65 520 l 17
 68.5 535.5 93.4014 555 125 555 c 7
 156.036 555 190 538.502 190 485 c 3
 190 447.487 159.041 420 110 420 c 3
 76.4281 420 30 443.498 30 520 c 3
EndSplineSet
EndChar

StartChar: uni2077
Encoding: 8311 8311 372
Width: 200
VWidth: 0
Flags: W
HStem: 430 21G<30 81.1765> 610 40<30 135.003>
VStem: 30 140<610.002 650>
LayerCount: 2
Fore
SplineSet
30 650 m 1
 170 650 l 1
 170 620 l 2
 170 610.333 168.198 605.724 165 600 c 2
 70 430 l 25
 30 430 l 1
 135 590 l 2
 145.973 606.721 140 610 120 610 c 2
 30 610 l 25
 30 650 l 1
EndSplineSet
EndChar

StartChar: uni2078
Encoding: 8312 8312 373
Width: 230
VWidth: 0
Flags: W
HStem: 420 20<83.4872 145.877> 640 20<95.4276 135.542>
VStem: 30 40<445.483 522.777> 50 40<573.562 639.633> 140 40<563.388 639.24> 160 40<445.454 514.343>
LayerCount: 2
Fore
SplineSet
180 605 m 3xd8
 180 632.519 167.01 660 115 660 c 3
 65.9902 660 50 629.5 50 605 c 3xd8
 50 579 53.2695 561.406 115 530 c 0
 143.5 515.5 160 501.031 160 485 c 3
 160 464.9 152.514 440 115 440 c 3
 75.4873 440 70 466.561 70 485 c 3
 70 500.5 79 521 115 540 c 9
 100 560 l 17
 39 543 30 510.506 30 490 c 3
 30 460.996 44.998 420 115 420 c 3
 169.521 420 200 451.79 200 490 c 3xe4
 200 524.5 149.734 550.979 115 570 c 0
 94 581.5 90 594.867 90 610 c 3
 90 625 94.9004 640 115 640 c 3
 139.516 640 140 622.011 140 610 c 3
 140 590.5 128 571.5 107 557 c 9
 120 540 l 17
 161.5 549 180 578 180 605 c 3xd8
EndSplineSet
EndChar

StartChar: uni2070
Encoding: 8304 8304 376
Width: 240
VWidth: 0
Flags: W
HStem: 420 20<97.7963 142.104> 640 20<98.0511 141.636>
VStem: 30 40<464.592 618.143> 170 40<464.653 617.276>
LayerCount: 2
Fore
SplineSet
120 420 m 3
 46 420 30 511.995 30 540 c 3
 30 558.5 36.4629 660 120 660 c 3
 202.506 660 210 559 210 540 c 3
 210 511.496 194.007 420 120 420 c 3
120 640 m 3
 76 640 70 560.057 70 540 c 3
 70 513.331 80 440 120 440 c 3
 159.5 440 170 514.456 170 540 c 3
 170 559.558 163 640 120 640 c 3
EndSplineSet
EndChar

